<?xml version="1.0" encoding="UTF-8" standalone="no"?>
<!DOCTYPE svg PUBLIC "-//W3C//DTD SVG 1.1//EN"
 "http://www.w3.org/Graphics/SVG/1.1/DTD/svg11.dtd">
<!-- Generated by graphviz version 2.47.0 (20210316.0004)
 -->
<!-- Title: dependencies Pages: 1 -->
<svg width="1025pt" height="211pt"
 viewBox="0.00 0.00 1025.00 211.00" xmlns="http://www.w3.org/2000/svg" xmlns:xlink="http://www.w3.org/1999/xlink">
<g id="graph0" class="graph" transform="scale(1 1) rotate(0) translate(4 207)">
<title>dependencies</title>
<polygon fill="white" stroke="transparent" points="-4,4 -4,-207 1021,-207 1021,4 -4,4"/>
<text text-anchor="start" x="487.51" y="-42.4" font-family="Times-12" font-weight="bold" font-size="14.00">Legend</text>
<polygon fill="#ffffb3" stroke="transparent" points="274.5,-10 274.5,-30 294.5,-30 294.5,-10 274.5,-10"/>
<text text-anchor="start" x="298.13" y="-15.4" font-family="Times-12" font-size="14.00"> &#160;Declarations</text>
<polygon fill="#8dd3c7" stroke="transparent" points="387.5,-10 387.5,-30 407.5,-30 407.5,-10 387.5,-10"/>
<text text-anchor="start" x="411.23" y="-15.4" font-family="Times-12" font-size="14.00"> &#160;Module</text>
<polygon fill="#80b1d3" stroke="transparent" points="473.5,-10 473.5,-30 493.5,-30 493.5,-10 473.5,-10"/>
<text text-anchor="start" x="497.28" y="-15.4" font-family="Times-12" font-size="14.00"> &#160;Bootstrap</text>
<polygon fill="#fdb462" stroke="transparent" points="570.5,-10 570.5,-30 590.5,-30 590.5,-10 570.5,-10"/>
<text text-anchor="start" x="594.17" y="-15.4" font-family="Times-12" font-size="14.00"> &#160;Providers</text>
<polygon fill="#fb8072" stroke="transparent" points="666.5,-10 666.5,-30 686.5,-30 686.5,-10 666.5,-10"/>
<text text-anchor="start" x="690.23" y="-15.4" font-family="Times-12" font-size="14.00"> &#160;Exports</text>
<g id="clust1" class="cluster">
<title>cluster_HomeModule</title>
<polygon fill="none" stroke="black" stroke-dasharray="1,5" points="8,-70 8,-195 1009,-195 1009,-70 8,-70"/>
</g>
<g id="clust7" class="cluster">
<title>cluster_HomeModule_imports</title>
<polygon fill="none" stroke="black" points="730,-78 730,-130 1001,-130 1001,-78 730,-78"/>
</g>
<g id="clust2" class="cluster">
<title>cluster_HomeModule_declarations</title>
<polygon fill="none" stroke="black" points="16,-78 16,-130 722,-130 722,-78 16,-78"/>
</g>
<!-- AboutUsComponent -->
<g id="node1" class="node">
<title>AboutUsComponent</title>
<polygon fill="#ffffb3" stroke="black" points="713.88,-122 582.12,-122 582.12,-86 713.88,-86 713.88,-122"/>
<text text-anchor="middle" x="648" y="-99.8" font-family="Times,serif" font-size="14.00">AboutUsComponent</text>
</g>
<!-- HomeModule -->
<g id="node5" class="node">
<title>HomeModule</title>
<polygon fill="#8dd3c7" stroke="black" points="616.76,-187 613.76,-191 592.76,-191 589.76,-187 523.24,-187 523.24,-151 616.76,-151 616.76,-187"/>
<text text-anchor="middle" x="570" y="-164.8" font-family="Times,serif" font-size="14.00">HomeModule</text>
</g>
<!-- AboutUsComponent&#45;&gt;HomeModule -->
<g id="edge1" class="edge">
<title>AboutUsComponent&#45;&gt;HomeModule</title>
<path fill="none" stroke="black" d="M599.47,-122.11C599.47,-122.11 599.47,-140.99 599.47,-140.99"/>
<polygon fill="black" stroke="black" points="595.97,-140.99 599.47,-150.99 602.97,-140.99 595.97,-140.99"/>
</g>
<!-- HomePageComponent -->
<g id="node2" class="node">
<title>HomePageComponent</title>
<polygon fill="#ffffb3" stroke="black" points="564.26,-122 421.74,-122 421.74,-86 564.26,-86 564.26,-122"/>
<text text-anchor="middle" x="493" y="-99.8" font-family="Times,serif" font-size="14.00">HomePageComponent</text>
</g>
<!-- HomePageComponent&#45;&gt;HomeModule -->
<g id="edge2" class="edge">
<title>HomePageComponent&#45;&gt;HomeModule</title>
<path fill="none" stroke="black" d="M543.75,-122.11C543.75,-122.11 543.75,-140.99 543.75,-140.99"/>
<polygon fill="black" stroke="black" points="540.25,-140.99 543.75,-150.99 547.25,-140.99 540.25,-140.99"/>
</g>
<!-- PrivacyPolicyComponent -->
<g id="node3" class="node">
<title>PrivacyPolicyComponent</title>
<polygon fill="#ffffb3" stroke="black" points="403.87,-122 244.13,-122 244.13,-86 403.87,-86 403.87,-122"/>
<text text-anchor="middle" x="324" y="-99.8" font-family="Times,serif" font-size="14.00">PrivacyPolicyComponent</text>
</g>
<!-- PrivacyPolicyComponent&#45;&gt;HomeModule -->
<g id="edge3" class="edge">
<title>PrivacyPolicyComponent&#45;&gt;HomeModule</title>
<path fill="none" stroke="black" d="M324,-122.02C324,-139.37 324,-163 324,-163 324,-163 513.15,-163 513.15,-163"/>
<polygon fill="black" stroke="black" points="513.15,-166.5 523.15,-163 513.15,-159.5 513.15,-166.5"/>
</g>
<!-- TermsAndConditionsComponent -->
<g id="node4" class="node">
<title>TermsAndConditionsComponent</title>
<polygon fill="#ffffb3" stroke="black" points="226.16,-122 23.84,-122 23.84,-86 226.16,-86 226.16,-122"/>
<text text-anchor="middle" x="125" y="-99.8" font-family="Times,serif" font-size="14.00">TermsAndConditionsComponent</text>
</g>
<!-- TermsAndConditionsComponent&#45;&gt;HomeModule -->
<g id="edge4" class="edge">
<title>TermsAndConditionsComponent&#45;&gt;HomeModule</title>
<path fill="none" stroke="black" d="M125,-122.28C125,-143.32 125,-175 125,-175 125,-175 513.22,-175 513.22,-175"/>
<polygon fill="black" stroke="black" points="513.22,-178.5 523.22,-175 513.22,-171.5 513.22,-178.5"/>
</g>
<!-- HomeRoutingModule -->
<g id="node6" class="node">
<title>HomeRoutingModule</title>
<polygon fill="#8dd3c7" stroke="black" points="993.38,-122 990.38,-126 969.38,-126 966.38,-122 854.62,-122 854.62,-86 993.38,-86 993.38,-122"/>
<text text-anchor="middle" x="924" y="-99.8" font-family="Times,serif" font-size="14.00">HomeRoutingModule</text>
</g>
<!-- HomeRoutingModule&#45;&gt;HomeModule -->
<g id="edge5" class="edge">
<title>HomeRoutingModule&#45;&gt;HomeModule</title>
<path fill="none" stroke="black" d="M924,-122.28C924,-143.32 924,-175 924,-175 924,-175 627.01,-175 627.01,-175"/>
<polygon fill="black" stroke="black" points="627.01,-171.5 617.01,-175 627.01,-178.5 627.01,-171.5"/>
</g>
<!-- SharedModule -->
<g id="node7" class="node">
<title>SharedModule</title>
<polygon fill="#8dd3c7" stroke="black" points="836.42,-122 833.42,-126 812.42,-126 809.42,-122 737.58,-122 737.58,-86 836.42,-86 836.42,-122"/>
<text text-anchor="middle" x="787" y="-99.8" font-family="Times,serif" font-size="14.00">SharedModule</text>
</g>
<!-- SharedModule&#45;&gt;HomeModule -->
<g id="edge6" class="edge">
<title>SharedModule&#45;&gt;HomeModule</title>
<path fill="none" stroke="black" d="M787,-122.02C787,-139.37 787,-163 787,-163 787,-163 626.82,-163 626.82,-163"/>
<polygon fill="black" stroke="black" points="626.82,-159.5 616.82,-163 626.82,-166.5 626.82,-159.5"/>
</g>
</g>
</svg>
