<?xml version="1.0" encoding="UTF-8" standalone="no"?>
<!DOCTYPE svg PUBLIC "-//W3C//DTD SVG 1.1//EN"
 "http://www.w3.org/Graphics/SVG/1.1/DTD/svg11.dtd">
<!-- Generated by graphviz version 2.47.0 (20210316.0004)
 -->
<!-- Title: dependencies Pages: 1 -->
<svg width="1792pt" height="211pt"
 viewBox="0.00 0.00 1792.00 211.00" xmlns="http://www.w3.org/2000/svg" xmlns:xlink="http://www.w3.org/1999/xlink">
<g id="graph0" class="graph" transform="scale(1 1) rotate(0) translate(4 207)">
<title>dependencies</title>
<polygon fill="white" stroke="transparent" points="-4,4 -4,-207 1788,-207 1788,4 -4,4"/>
<text text-anchor="start" x="871.01" y="-42.4" font-family="Times-12" font-weight="bold" font-size="14.00">Legend</text>
<polygon fill="#ffffb3" stroke="transparent" points="658,-10 658,-30 678,-30 678,-10 658,-10"/>
<text text-anchor="start" x="681.63" y="-15.4" font-family="Times-12" font-size="14.00"> &#160;Declarations</text>
<polygon fill="#8dd3c7" stroke="transparent" points="771,-10 771,-30 791,-30 791,-10 771,-10"/>
<text text-anchor="start" x="794.73" y="-15.4" font-family="Times-12" font-size="14.00"> &#160;Module</text>
<polygon fill="#80b1d3" stroke="transparent" points="857,-10 857,-30 877,-30 877,-10 857,-10"/>
<text text-anchor="start" x="880.78" y="-15.4" font-family="Times-12" font-size="14.00"> &#160;Bootstrap</text>
<polygon fill="#fdb462" stroke="transparent" points="954,-10 954,-30 974,-30 974,-10 954,-10"/>
<text text-anchor="start" x="977.67" y="-15.4" font-family="Times-12" font-size="14.00"> &#160;Providers</text>
<polygon fill="#fb8072" stroke="transparent" points="1050,-10 1050,-30 1070,-30 1070,-10 1050,-10"/>
<text text-anchor="start" x="1073.73" y="-15.4" font-family="Times-12" font-size="14.00"> &#160;Exports</text>
<g id="clust1" class="cluster">
<title>cluster_AuthenticationModule</title>
<polygon fill="none" stroke="black" stroke-dasharray="1,5" points="8,-70 8,-195 1776,-195 1776,-70 8,-70"/>
</g>
<g id="clust11" class="cluster">
<title>cluster_AuthenticationModule_imports</title>
<polygon fill="none" stroke="black" points="1448,-78 1448,-130 1768,-130 1768,-78 1448,-78"/>
</g>
<g id="clust2" class="cluster">
<title>cluster_AuthenticationModule_declarations</title>
<polygon fill="none" stroke="black" points="16,-78 16,-130 1440,-130 1440,-78 16,-78"/>
</g>
<!-- AlterarPassComponent -->
<g id="node1" class="node">
<title>AlterarPassComponent</title>
<polygon fill="#ffffb3" stroke="black" points="1431.86,-122 1286.14,-122 1286.14,-86 1431.86,-86 1431.86,-122"/>
<text text-anchor="middle" x="1359" y="-99.8" font-family="Times,serif" font-size="14.00">AlterarPassComponent</text>
</g>
<!-- AuthenticationModule -->
<g id="node9" class="node">
<title>AuthenticationModule</title>
<polygon fill="#8dd3c7" stroke="black" points="970.25,-187 967.25,-191 946.25,-191 943.25,-187 827.75,-187 827.75,-151 970.25,-151 970.25,-187"/>
<text text-anchor="middle" x="899" y="-164.8" font-family="Times,serif" font-size="14.00">AuthenticationModule</text>
</g>
<!-- AlterarPassComponent&#45;&gt;AuthenticationModule -->
<g id="edge1" class="edge">
<title>AlterarPassComponent&#45;&gt;AuthenticationModule</title>
<path fill="none" stroke="black" d="M1359,-122.27C1359,-140.56 1359,-166 1359,-166 1359,-166 980.37,-166 980.37,-166"/>
<polygon fill="black" stroke="black" points="980.37,-162.5 970.37,-166 980.37,-169.5 980.37,-162.5"/>
</g>
<!-- ConfirmEmailComponent -->
<g id="node2" class="node">
<title>ConfirmEmailComponent</title>
<polygon fill="#ffffb3" stroke="black" points="1268.21,-122 1105.79,-122 1105.79,-86 1268.21,-86 1268.21,-122"/>
<text text-anchor="middle" x="1187" y="-99.8" font-family="Times,serif" font-size="14.00">ConfirmEmailComponent</text>
</g>
<!-- ConfirmEmailComponent&#45;&gt;AuthenticationModule -->
<g id="edge2" class="edge">
<title>ConfirmEmailComponent&#45;&gt;AuthenticationModule</title>
<path fill="none" stroke="black" d="M1187,-122.01C1187,-138.05 1187,-159 1187,-159 1187,-159 980.56,-159 980.56,-159"/>
<polygon fill="black" stroke="black" points="980.56,-155.5 970.56,-159 980.56,-162.5 980.56,-155.5"/>
</g>
<!-- FooterAuthenticationComponent -->
<g id="node3" class="node">
<title>FooterAuthenticationComponent</title>
<polygon fill="#ffffb3" stroke="black" points="1087.58,-122 886.42,-122 886.42,-86 1087.58,-86 1087.58,-122"/>
<text text-anchor="middle" x="987" y="-99.8" font-family="Times,serif" font-size="14.00">FooterAuthenticationComponent</text>
</g>
<!-- FooterAuthenticationComponent&#45;&gt;AuthenticationModule -->
<g id="edge3" class="edge">
<title>FooterAuthenticationComponent&#45;&gt;AuthenticationModule</title>
<path fill="none" stroke="black" d="M928.42,-122.11C928.42,-122.11 928.42,-140.99 928.42,-140.99"/>
<polygon fill="black" stroke="black" points="924.92,-140.99 928.42,-150.99 931.92,-140.99 924.92,-140.99"/>
</g>
<!-- LoginComponent -->
<g id="node4" class="node">
<title>LoginComponent</title>
<polygon fill="#ffffb3" stroke="black" points="868.28,-122 753.72,-122 753.72,-86 868.28,-86 868.28,-122"/>
<text text-anchor="middle" x="811" y="-99.8" font-family="Times,serif" font-size="14.00">LoginComponent</text>
</g>
<!-- LoginComponent&#45;&gt;AuthenticationModule -->
<g id="edge4" class="edge">
<title>LoginComponent&#45;&gt;AuthenticationModule</title>
<path fill="none" stroke="black" d="M848.01,-122.11C848.01,-122.11 848.01,-140.99 848.01,-140.99"/>
<polygon fill="black" stroke="black" points="844.51,-140.99 848.01,-150.99 851.51,-140.99 844.51,-140.99"/>
</g>
<!-- RecuperarContaComponent -->
<g id="node5" class="node">
<title>RecuperarContaComponent</title>
<polygon fill="#ffffb3" stroke="black" points="735.29,-122 562.71,-122 562.71,-86 735.29,-86 735.29,-122"/>
<text text-anchor="middle" x="649" y="-99.8" font-family="Times,serif" font-size="14.00">RecuperarContaComponent</text>
</g>
<!-- RecuperarContaComponent&#45;&gt;AuthenticationModule -->
<g id="edge5" class="edge">
<title>RecuperarContaComponent&#45;&gt;AuthenticationModule</title>
<path fill="none" stroke="black" d="M649,-122.01C649,-138.05 649,-159 649,-159 649,-159 817.69,-159 817.69,-159"/>
<polygon fill="black" stroke="black" points="817.69,-162.5 827.69,-159 817.69,-155.5 817.69,-162.5"/>
</g>
<!-- RecuperarPassComponent -->
<g id="node6" class="node">
<title>RecuperarPassComponent</title>
<polygon fill="#ffffb3" stroke="black" points="544.74,-122 381.26,-122 381.26,-86 544.74,-86 544.74,-122"/>
<text text-anchor="middle" x="463" y="-99.8" font-family="Times,serif" font-size="14.00">RecuperarPassComponent</text>
</g>
<!-- RecuperarPassComponent&#45;&gt;AuthenticationModule -->
<g id="edge6" class="edge">
<title>RecuperarPassComponent&#45;&gt;AuthenticationModule</title>
<path fill="none" stroke="black" d="M463,-122.27C463,-140.56 463,-166 463,-166 463,-166 817.49,-166 817.49,-166"/>
<polygon fill="black" stroke="black" points="817.49,-169.5 827.49,-166 817.49,-162.5 817.49,-169.5"/>
</g>
<!-- RegisterWithGoogleComponent -->
<g id="node7" class="node">
<title>RegisterWithGoogleComponent</title>
<polygon fill="#ffffb3" stroke="black" points="363.69,-122 166.31,-122 166.31,-86 363.69,-86 363.69,-122"/>
<text text-anchor="middle" x="265" y="-99.8" font-family="Times,serif" font-size="14.00">RegisterWithGoogleComponent</text>
</g>
<!-- RegisterWithGoogleComponent&#45;&gt;AuthenticationModule -->
<g id="edge7" class="edge">
<title>RegisterWithGoogleComponent&#45;&gt;AuthenticationModule</title>
<path fill="none" stroke="black" d="M265,-122.13C265,-142.57 265,-173 265,-173 265,-173 817.5,-173 817.5,-173"/>
<polygon fill="black" stroke="black" points="817.5,-176.5 827.5,-173 817.5,-169.5 817.5,-176.5"/>
</g>
<!-- RegistoComponent -->
<g id="node8" class="node">
<title>RegistoComponent</title>
<polygon fill="#ffffb3" stroke="black" points="148.11,-122 23.89,-122 23.89,-86 148.11,-86 148.11,-122"/>
<text text-anchor="middle" x="86" y="-99.8" font-family="Times,serif" font-size="14.00">RegistoComponent</text>
</g>
<!-- RegistoComponent&#45;&gt;AuthenticationModule -->
<g id="edge8" class="edge">
<title>RegistoComponent&#45;&gt;AuthenticationModule</title>
<path fill="none" stroke="black" d="M86,-122.01C86,-144.49 86,-180 86,-180 86,-180 817.56,-180 817.56,-180"/>
<polygon fill="black" stroke="black" points="817.56,-183.5 827.56,-180 817.56,-176.5 817.56,-183.5"/>
</g>
<!-- AuthenticationRoutingModule -->
<g id="node10" class="node">
<title>AuthenticationRoutingModule</title>
<polygon fill="#8dd3c7" stroke="black" points="1759.87,-122 1756.87,-126 1735.87,-126 1732.87,-122 1572.13,-122 1572.13,-86 1759.87,-86 1759.87,-122"/>
<text text-anchor="middle" x="1666" y="-99.8" font-family="Times,serif" font-size="14.00">AuthenticationRoutingModule</text>
</g>
<!-- AuthenticationRoutingModule&#45;&gt;AuthenticationModule -->
<g id="edge9" class="edge">
<title>AuthenticationRoutingModule&#45;&gt;AuthenticationModule</title>
<path fill="none" stroke="black" d="M1666,-122.01C1666,-144.49 1666,-180 1666,-180 1666,-180 980.47,-180 980.47,-180"/>
<polygon fill="black" stroke="black" points="980.47,-176.5 970.47,-180 980.47,-183.5 980.47,-176.5"/>
</g>
<!-- SharedModule -->
<g id="node11" class="node">
<title>SharedModule</title>
<polygon fill="#8dd3c7" stroke="black" points="1554.42,-122 1551.42,-126 1530.42,-126 1527.42,-122 1455.58,-122 1455.58,-86 1554.42,-86 1554.42,-122"/>
<text text-anchor="middle" x="1505" y="-99.8" font-family="Times,serif" font-size="14.00">SharedModule</text>
</g>
<!-- SharedModule&#45;&gt;AuthenticationModule -->
<g id="edge10" class="edge">
<title>SharedModule&#45;&gt;AuthenticationModule</title>
<path fill="none" stroke="black" d="M1505,-122.13C1505,-142.57 1505,-173 1505,-173 1505,-173 980.3,-173 980.3,-173"/>
<polygon fill="black" stroke="black" points="980.3,-169.5 970.3,-173 980.3,-176.5 980.3,-169.5"/>
</g>
</g>
</svg>
