<?xml version="1.0" encoding="UTF-8" standalone="no"?>
<!DOCTYPE svg PUBLIC "-//W3C//DTD SVG 1.1//EN"
 "http://www.w3.org/Graphics/SVG/1.1/DTD/svg11.dtd">
<!-- Generated by graphviz version 2.47.0 (20210316.0004)
 -->
<!-- Title: dependencies Pages: 1 -->
<svg width="1980pt" height="211pt"
 viewBox="0.00 0.00 1980.00 211.00" xmlns="http://www.w3.org/2000/svg" xmlns:xlink="http://www.w3.org/1999/xlink">
<g id="graph0" class="graph" transform="scale(1 1) rotate(0) translate(4 207)">
<title>dependencies</title>
<polygon fill="white" stroke="transparent" points="-4,4 -4,-207 1976,-207 1976,4 -4,4"/>
<text text-anchor="start" x="965.01" y="-42.4" font-family="Times-12" font-weight="bold" font-size="14.00">Legend</text>
<polygon fill="#ffffb3" stroke="transparent" points="752,-10 752,-30 772,-30 772,-10 752,-10"/>
<text text-anchor="start" x="775.63" y="-15.4" font-family="Times-12" font-size="14.00"> &#160;Declarations</text>
<polygon fill="#8dd3c7" stroke="transparent" points="865,-10 865,-30 885,-30 885,-10 865,-10"/>
<text text-anchor="start" x="888.73" y="-15.4" font-family="Times-12" font-size="14.00"> &#160;Module</text>
<polygon fill="#80b1d3" stroke="transparent" points="951,-10 951,-30 971,-30 971,-10 951,-10"/>
<text text-anchor="start" x="974.78" y="-15.4" font-family="Times-12" font-size="14.00"> &#160;Bootstrap</text>
<polygon fill="#fdb462" stroke="transparent" points="1048,-10 1048,-30 1068,-30 1068,-10 1048,-10"/>
<text text-anchor="start" x="1071.67" y="-15.4" font-family="Times-12" font-size="14.00"> &#160;Providers</text>
<polygon fill="#fb8072" stroke="transparent" points="1144,-10 1144,-30 1164,-30 1164,-10 1144,-10"/>
<text text-anchor="start" x="1167.73" y="-15.4" font-family="Times-12" font-size="14.00"> &#160;Exports</text>
<g id="clust1" class="cluster">
<title>cluster_AuthenticationModule</title>
<polygon fill="none" stroke="black" stroke-dasharray="1,5" points="8,-70 8,-195 1964,-195 1964,-70 8,-70"/>
</g>
<g id="clust2" class="cluster">
<title>cluster_AuthenticationModule_declarations</title>
<polygon fill="none" stroke="black" points="344,-78 344,-130 1956,-130 1956,-78 344,-78"/>
</g>
<g id="clust12" class="cluster">
<title>cluster_AuthenticationModule_imports</title>
<polygon fill="none" stroke="black" points="16,-78 16,-130 336,-130 336,-78 16,-78"/>
</g>
<!-- AlterarPassComponent -->
<g id="node1" class="node">
<title>AlterarPassComponent</title>
<polygon fill="#ffffb3" stroke="black" points="1947.86,-122 1802.14,-122 1802.14,-86 1947.86,-86 1947.86,-122"/>
<text text-anchor="middle" x="1875" y="-99.8" font-family="Times,serif" font-size="14.00">AlterarPassComponent</text>
</g>
<!-- AuthenticationModule -->
<g id="node10" class="node">
<title>AuthenticationModule</title>
<polygon fill="#8dd3c7" stroke="black" points="1050.25,-187 1047.25,-191 1026.25,-191 1023.25,-187 907.75,-187 907.75,-151 1050.25,-151 1050.25,-187"/>
<text text-anchor="middle" x="979" y="-164.8" font-family="Times,serif" font-size="14.00">AuthenticationModule</text>
</g>
<!-- AlterarPassComponent&#45;&gt;AuthenticationModule -->
<g id="edge1" class="edge">
<title>AlterarPassComponent&#45;&gt;AuthenticationModule</title>
<path fill="none" stroke="black" d="M1875,-122.09C1875,-145.13 1875,-182 1875,-182 1875,-182 1060.43,-182 1060.43,-182"/>
<polygon fill="black" stroke="black" points="1060.43,-178.5 1050.43,-182 1060.43,-185.5 1060.43,-178.5"/>
</g>
<!-- ConfirmEmailComponent -->
<g id="node2" class="node">
<title>ConfirmEmailComponent</title>
<polygon fill="#ffffb3" stroke="black" points="1784.21,-122 1621.79,-122 1621.79,-86 1784.21,-86 1784.21,-122"/>
<text text-anchor="middle" x="1703" y="-99.8" font-family="Times,serif" font-size="14.00">ConfirmEmailComponent</text>
</g>
<!-- ConfirmEmailComponent&#45;&gt;AuthenticationModule -->
<g id="edge2" class="edge">
<title>ConfirmEmailComponent&#45;&gt;AuthenticationModule</title>
<path fill="none" stroke="black" d="M1703,-122.28C1703,-143.32 1703,-175 1703,-175 1703,-175 1060.4,-175 1060.4,-175"/>
<polygon fill="black" stroke="black" points="1060.4,-171.5 1050.4,-175 1060.4,-178.5 1060.4,-171.5"/>
</g>
<!-- FooterAuthenticationComponent -->
<g id="node3" class="node">
<title>FooterAuthenticationComponent</title>
<polygon fill="#ffffb3" stroke="black" points="1603.58,-122 1402.42,-122 1402.42,-86 1603.58,-86 1603.58,-122"/>
<text text-anchor="middle" x="1503" y="-99.8" font-family="Times,serif" font-size="14.00">FooterAuthenticationComponent</text>
</g>
<!-- FooterAuthenticationComponent&#45;&gt;AuthenticationModule -->
<g id="edge3" class="edge">
<title>FooterAuthenticationComponent&#45;&gt;AuthenticationModule</title>
<path fill="none" stroke="black" d="M1503,-122.11C1503,-141.34 1503,-169 1503,-169 1503,-169 1060.49,-169 1060.49,-169"/>
<polygon fill="black" stroke="black" points="1060.49,-165.5 1050.49,-169 1060.49,-172.5 1060.49,-165.5"/>
</g>
<!-- LoginComponent -->
<g id="node4" class="node">
<title>LoginComponent</title>
<polygon fill="#ffffb3" stroke="black" points="1384.28,-122 1269.72,-122 1269.72,-86 1384.28,-86 1384.28,-122"/>
<text text-anchor="middle" x="1327" y="-99.8" font-family="Times,serif" font-size="14.00">LoginComponent</text>
</g>
<!-- LoginComponent&#45;&gt;AuthenticationModule -->
<g id="edge4" class="edge">
<title>LoginComponent&#45;&gt;AuthenticationModule</title>
<path fill="none" stroke="black" d="M1327,-122.02C1327,-139.37 1327,-163 1327,-163 1327,-163 1060.26,-163 1060.26,-163"/>
<polygon fill="black" stroke="black" points="1060.26,-159.5 1050.26,-163 1060.26,-166.5 1060.26,-159.5"/>
</g>
<!-- RecuperarContaComponent -->
<g id="node5" class="node">
<title>RecuperarContaComponent</title>
<polygon fill="#ffffb3" stroke="black" points="1251.29,-122 1078.71,-122 1078.71,-86 1251.29,-86 1251.29,-122"/>
<text text-anchor="middle" x="1165" y="-99.8" font-family="Times,serif" font-size="14.00">RecuperarContaComponent</text>
</g>
<!-- RecuperarContaComponent&#45;&gt;AuthenticationModule -->
<g id="edge5" class="edge">
<title>RecuperarContaComponent&#45;&gt;AuthenticationModule</title>
<path fill="none" stroke="black" d="M1165,-122.24C1165,-137.57 1165,-157 1165,-157 1165,-157 1060.38,-157 1060.38,-157"/>
<polygon fill="black" stroke="black" points="1060.38,-153.5 1050.38,-157 1060.38,-160.5 1060.38,-153.5"/>
</g>
<!-- RecuperarPassComponent -->
<g id="node6" class="node">
<title>RecuperarPassComponent</title>
<polygon fill="#ffffb3" stroke="black" points="1060.74,-122 897.26,-122 897.26,-86 1060.74,-86 1060.74,-122"/>
<text text-anchor="middle" x="979" y="-99.8" font-family="Times,serif" font-size="14.00">RecuperarPassComponent</text>
</g>
<!-- RecuperarPassComponent&#45;&gt;AuthenticationModule -->
<g id="edge6" class="edge">
<title>RecuperarPassComponent&#45;&gt;AuthenticationModule</title>
<path fill="none" stroke="black" d="M979,-122.11C979,-122.11 979,-140.99 979,-140.99"/>
<polygon fill="black" stroke="black" points="975.5,-140.99 979,-150.99 982.5,-140.99 975.5,-140.99"/>
</g>
<!-- RegisterWithGoogleComponent -->
<g id="node7" class="node">
<title>RegisterWithGoogleComponent</title>
<polygon fill="#ffffb3" stroke="black" points="879.69,-122 682.31,-122 682.31,-86 879.69,-86 879.69,-122"/>
<text text-anchor="middle" x="781" y="-99.8" font-family="Times,serif" font-size="14.00">RegisterWithGoogleComponent</text>
</g>
<!-- RegisterWithGoogleComponent&#45;&gt;AuthenticationModule -->
<g id="edge7" class="edge">
<title>RegisterWithGoogleComponent&#45;&gt;AuthenticationModule</title>
<path fill="none" stroke="black" d="M781,-122.24C781,-137.57 781,-157 781,-157 781,-157 897.52,-157 897.52,-157"/>
<polygon fill="black" stroke="black" points="897.52,-160.5 907.52,-157 897.52,-153.5 897.52,-160.5"/>
</g>
<!-- RegistoComponent -->
<g id="node8" class="node">
<title>RegistoComponent</title>
<polygon fill="#ffffb3" stroke="black" points="664.11,-122 539.89,-122 539.89,-86 664.11,-86 664.11,-122"/>
<text text-anchor="middle" x="602" y="-99.8" font-family="Times,serif" font-size="14.00">RegistoComponent</text>
</g>
<!-- RegistoComponent&#45;&gt;AuthenticationModule -->
<g id="edge8" class="edge">
<title>RegistoComponent&#45;&gt;AuthenticationModule</title>
<path fill="none" stroke="black" d="M602,-122.02C602,-139.37 602,-163 602,-163 602,-163 897.65,-163 897.65,-163"/>
<polygon fill="black" stroke="black" points="897.65,-166.5 907.65,-163 897.65,-159.5 897.65,-166.5"/>
</g>
<!-- UnlockAccountComponent -->
<g id="node9" class="node">
<title>UnlockAccountComponent</title>
<polygon fill="#ffffb3" stroke="black" points="521.97,-122 352.03,-122 352.03,-86 521.97,-86 521.97,-122"/>
<text text-anchor="middle" x="437" y="-99.8" font-family="Times,serif" font-size="14.00">UnlockAccountComponent</text>
</g>
<!-- UnlockAccountComponent&#45;&gt;AuthenticationModule -->
<g id="edge9" class="edge">
<title>UnlockAccountComponent&#45;&gt;AuthenticationModule</title>
<path fill="none" stroke="black" d="M437,-122.11C437,-141.34 437,-169 437,-169 437,-169 897.59,-169 897.59,-169"/>
<polygon fill="black" stroke="black" points="897.59,-172.5 907.59,-169 897.59,-165.5 897.59,-172.5"/>
</g>
<!-- AuthenticationRoutingModule -->
<g id="node11" class="node">
<title>AuthenticationRoutingModule</title>
<polygon fill="#8dd3c7" stroke="black" points="327.87,-122 324.87,-126 303.87,-126 300.87,-122 140.13,-122 140.13,-86 327.87,-86 327.87,-122"/>
<text text-anchor="middle" x="234" y="-99.8" font-family="Times,serif" font-size="14.00">AuthenticationRoutingModule</text>
</g>
<!-- AuthenticationRoutingModule&#45;&gt;AuthenticationModule -->
<g id="edge10" class="edge">
<title>AuthenticationRoutingModule&#45;&gt;AuthenticationModule</title>
<path fill="none" stroke="black" d="M234,-122.28C234,-143.32 234,-175 234,-175 234,-175 897.57,-175 897.57,-175"/>
<polygon fill="black" stroke="black" points="897.57,-178.5 907.57,-175 897.57,-171.5 897.57,-178.5"/>
</g>
<!-- SharedModule -->
<g id="node12" class="node">
<title>SharedModule</title>
<polygon fill="#8dd3c7" stroke="black" points="122.42,-122 119.42,-126 98.42,-126 95.42,-122 23.58,-122 23.58,-86 122.42,-86 122.42,-122"/>
<text text-anchor="middle" x="73" y="-99.8" font-family="Times,serif" font-size="14.00">SharedModule</text>
</g>
<!-- SharedModule&#45;&gt;AuthenticationModule -->
<g id="edge11" class="edge">
<title>SharedModule&#45;&gt;AuthenticationModule</title>
<path fill="none" stroke="black" d="M73,-122.09C73,-145.13 73,-182 73,-182 73,-182 897.53,-182 897.53,-182"/>
<polygon fill="black" stroke="black" points="897.53,-185.5 907.53,-182 897.53,-178.5 897.53,-185.5"/>
</g>
</g>
</svg>
