<?xml version="1.0" encoding="UTF-8" standalone="no"?>
<!DOCTYPE svg PUBLIC "-//W3C//DTD SVG 1.1//EN"
 "http://www.w3.org/Graphics/SVG/1.1/DTD/svg11.dtd">
<!-- Generated by graphviz version 2.47.0 (20210316.0004)
 -->
<!-- Title: dependencies Pages: 1 -->
<svg width="7425pt" height="295pt"
 viewBox="0.00 0.00 7425.00 295.00" xmlns="http://www.w3.org/2000/svg" xmlns:xlink="http://www.w3.org/1999/xlink">
<g id="graph0" class="graph" transform="scale(1 1) rotate(0) translate(4 291)">
<title>dependencies</title>
<polygon fill="white" stroke="transparent" points="-4,4 -4,-291 7421,-291 7421,4 -4,4"/>
<text text-anchor="start" x="3687.51" y="-42.4" font-family="Times-12" font-weight="bold" font-size="14.00">Legend</text>
<polygon fill="#ffffb3" stroke="transparent" points="3474.5,-10 3474.5,-30 3494.5,-30 3494.5,-10 3474.5,-10"/>
<text text-anchor="start" x="3498.13" y="-15.4" font-family="Times-12" font-size="14.00"> &#160;Declarations</text>
<polygon fill="#8dd3c7" stroke="transparent" points="3587.5,-10 3587.5,-30 3607.5,-30 3607.5,-10 3587.5,-10"/>
<text text-anchor="start" x="3611.23" y="-15.4" font-family="Times-12" font-size="14.00"> &#160;Module</text>
<polygon fill="#80b1d3" stroke="transparent" points="3673.5,-10 3673.5,-30 3693.5,-30 3693.5,-10 3673.5,-10"/>
<text text-anchor="start" x="3697.28" y="-15.4" font-family="Times-12" font-size="14.00"> &#160;Bootstrap</text>
<polygon fill="#fdb462" stroke="transparent" points="3770.5,-10 3770.5,-30 3790.5,-30 3790.5,-10 3770.5,-10"/>
<text text-anchor="start" x="3794.17" y="-15.4" font-family="Times-12" font-size="14.00"> &#160;Providers</text>
<polygon fill="#fb8072" stroke="transparent" points="3866.5,-10 3866.5,-30 3886.5,-30 3886.5,-10 3866.5,-10"/>
<text text-anchor="start" x="3890.23" y="-15.4" font-family="Times-12" font-size="14.00"> &#160;Exports</text>
<g id="clust1" class="cluster">
<title>cluster_AgendaModule</title>
<polygon fill="none" stroke="black" stroke-dasharray="1,5" points="770,-146 770,-271 1867,-271 1867,-146 770,-146"/>
</g>
<g id="clust2" class="cluster">
<title>cluster_AgendaModule_declarations</title>
<polygon fill="none" stroke="black" points="778,-154 778,-206 1571,-206 1571,-154 778,-154"/>
</g>
<g id="clust7" class="cluster">
<title>cluster_AgendaModule_imports</title>
<polygon fill="none" stroke="black" points="1579,-154 1579,-206 1859,-206 1859,-154 1579,-154"/>
</g>
<g id="clust17" class="cluster">
<title>cluster_AppModule</title>
<polygon fill="none" stroke="black" stroke-dasharray="1,5" points="6843,-70 6843,-279 7409,-279 7409,-70 6843,-70"/>
</g>
<g id="clust18" class="cluster">
<title>cluster_AppModule_declarations</title>
<polygon fill="none" stroke="black" points="7003,-78 7003,-130 7401,-130 7401,-78 7003,-78"/>
</g>
<g id="clust22" class="cluster">
<title>cluster_AppModule_imports</title>
<polygon fill="none" stroke="black" points="6851,-78 6851,-130 6995,-130 6995,-78 6851,-78"/>
</g>
<g id="clust24" class="cluster">
<title>cluster_AppModule_bootstrap</title>
<polygon fill="none" stroke="black" points="7073,-219 7073,-271 7197,-271 7197,-219 7073,-219"/>
</g>
<g id="clust26" class="cluster">
<title>cluster_AppointmentModule</title>
<polygon fill="none" stroke="black" stroke-dasharray="1,5" points="8,-146 8,-271 762,-271 762,-146 8,-146"/>
</g>
<g id="clust27" class="cluster">
<title>cluster_AppointmentModule_declarations</title>
<polygon fill="none" stroke="black" points="218,-154 218,-206 754,-206 754,-154 218,-154"/>
</g>
<g id="clust31" class="cluster">
<title>cluster_AppointmentModule_imports</title>
<polygon fill="none" stroke="black" points="16,-154 16,-206 210,-206 210,-154 16,-154"/>
</g>
<g id="clust47" class="cluster">
<title>cluster_AuthenticationModule</title>
<polygon fill="none" stroke="black" stroke-dasharray="1,5" points="1875,-146 1875,-271 3715,-271 3715,-146 1875,-146"/>
</g>
<g id="clust48" class="cluster">
<title>cluster_AuthenticationModule_declarations</title>
<polygon fill="none" stroke="black" points="2095,-154 2095,-206 3707,-206 3707,-154 2095,-154"/>
</g>
<g id="clust58" class="cluster">
<title>cluster_AuthenticationModule_imports</title>
<polygon fill="none" stroke="black" points="1883,-154 1883,-206 2087,-206 2087,-154 1883,-154"/>
</g>
<g id="clust68" class="cluster">
<title>cluster_HomeModule</title>
<polygon fill="none" stroke="black" stroke-dasharray="1,5" points="3723,-146 3723,-271 4607,-271 4607,-146 3723,-146"/>
</g>
<g id="clust69" class="cluster">
<title>cluster_HomeModule_declarations</title>
<polygon fill="none" stroke="black" points="3893,-154 3893,-206 4599,-206 4599,-154 3893,-154"/>
</g>
<g id="clust74" class="cluster">
<title>cluster_HomeModule_imports</title>
<polygon fill="none" stroke="black" points="3731,-154 3731,-206 3885,-206 3885,-154 3731,-154"/>
</g>
<g id="clust84" class="cluster">
<title>cluster_ProfileModule</title>
<polygon fill="none" stroke="black" stroke-dasharray="1,5" points="4615,-146 4615,-271 5615,-271 5615,-146 4615,-146"/>
</g>
<g id="clust85" class="cluster">
<title>cluster_ProfileModule_declarations</title>
<polygon fill="none" stroke="black" points="4789,-154 4789,-206 5607,-206 5607,-154 4789,-154"/>
</g>
<g id="clust90" class="cluster">
<title>cluster_ProfileModule_imports</title>
<polygon fill="none" stroke="black" points="4623,-154 4623,-206 4781,-206 4781,-154 4623,-154"/>
</g>
<g id="clust100" class="cluster">
<title>cluster_ServicesModule</title>
<polygon fill="none" stroke="black" stroke-dasharray="1,5" points="5623,-146 5623,-271 6835,-271 6835,-146 5623,-146"/>
</g>
<g id="clust101" class="cluster">
<title>cluster_ServicesModule_declarations</title>
<polygon fill="none" stroke="black" points="5967,-154 5967,-206 6827,-206 6827,-154 5967,-154"/>
</g>
<g id="clust107" class="cluster">
<title>cluster_ServicesModule_imports</title>
<polygon fill="none" stroke="black" points="5631,-154 5631,-206 5959,-206 5959,-154 5631,-154"/>
</g>
<g id="clust117" class="cluster">
<title>cluster_SharedModule</title>
<polygon fill="none" stroke="black" stroke-dasharray="1,5" points="1115,-70 1115,-138 2472,-138 2472,-70 1115,-70"/>
</g>
<g id="clust118" class="cluster">
<title>cluster_SharedModule_declarations</title>
<polygon fill="none" stroke="black" points="1725,-78 1725,-130 2464,-130 2464,-78 1725,-78"/>
</g>
<g id="clust124" class="cluster">
<title>cluster_SharedModule_exports</title>
<polygon fill="none" stroke="black" points="1123,-78 1123,-130 1717,-130 1717,-78 1123,-78"/>
</g>
<!-- AgendaPacienteComponent -->
<g id="node1" class="node">
<title>AgendaPacienteComponent</title>
<polygon fill="#ffffb3" stroke="black" points="1563.29,-198 1390.71,-198 1390.71,-162 1563.29,-162 1563.29,-198"/>
<text text-anchor="middle" x="1477" y="-175.8" font-family="Times,serif" font-size="14.00">AgendaPacienteComponent</text>
</g>
<!-- AgendaModule -->
<g id="node5" class="node">
<title>AgendaModule</title>
<polygon fill="#8dd3c7" stroke="black" points="1428.59,-263 1425.59,-267 1404.59,-267 1401.59,-263 1325.41,-263 1325.41,-227 1428.59,-227 1428.59,-263"/>
<text text-anchor="middle" x="1377" y="-240.8" font-family="Times,serif" font-size="14.00">AgendaModule</text>
</g>
<!-- AgendaPacienteComponent&#45;&gt;AgendaModule -->
<g id="edge1" class="edge">
<title>AgendaPacienteComponent&#45;&gt;AgendaModule</title>
<path fill="none" stroke="black" d="M1409.7,-198.11C1409.7,-198.11 1409.7,-216.99 1409.7,-216.99"/>
<polygon fill="black" stroke="black" points="1406.2,-216.99 1409.7,-226.99 1413.2,-216.99 1406.2,-216.99"/>
</g>
<!-- AgendaProfissionalComponent -->
<g id="node2" class="node">
<title>AgendaProfissionalComponent</title>
<polygon fill="#ffffb3" stroke="black" points="1372.75,-198 1181.25,-198 1181.25,-162 1372.75,-162 1372.75,-198"/>
<text text-anchor="middle" x="1277" y="-175.8" font-family="Times,serif" font-size="14.00">AgendaProfissionalComponent</text>
</g>
<!-- AgendaProfissionalComponent&#45;&gt;AgendaModule -->
<g id="edge2" class="edge">
<title>AgendaProfissionalComponent&#45;&gt;AgendaModule</title>
<path fill="none" stroke="black" d="M1349.17,-198.11C1349.17,-198.11 1349.17,-216.99 1349.17,-216.99"/>
<polygon fill="black" stroke="black" points="1345.67,-216.99 1349.17,-226.99 1352.67,-216.99 1345.67,-216.99"/>
</g>
<!-- DisponibilidadeComponent -->
<g id="node3" class="node">
<title>DisponibilidadeComponent</title>
<polygon fill="#ffffb3" stroke="black" points="1163.27,-198 992.73,-198 992.73,-162 1163.27,-162 1163.27,-198"/>
<text text-anchor="middle" x="1078" y="-175.8" font-family="Times,serif" font-size="14.00">DisponibilidadeComponent</text>
</g>
<!-- DisponibilidadeComponent&#45;&gt;AgendaModule -->
<g id="edge3" class="edge">
<title>DisponibilidadeComponent&#45;&gt;AgendaModule</title>
<path fill="none" stroke="black" d="M1078,-198.02C1078,-215.37 1078,-239 1078,-239 1078,-239 1315.26,-239 1315.26,-239"/>
<polygon fill="black" stroke="black" points="1315.26,-242.5 1325.26,-239 1315.26,-235.5 1315.26,-242.5"/>
</g>
<!-- HistoricoConsultasComponent -->
<g id="node4" class="node">
<title>HistoricoConsultasComponent</title>
<polygon fill="#ffffb3" stroke="black" points="974.15,-198 785.85,-198 785.85,-162 974.15,-162 974.15,-198"/>
<text text-anchor="middle" x="880" y="-175.8" font-family="Times,serif" font-size="14.00">HistoricoConsultasComponent</text>
</g>
<!-- HistoricoConsultasComponent&#45;&gt;AgendaModule -->
<g id="edge4" class="edge">
<title>HistoricoConsultasComponent&#45;&gt;AgendaModule</title>
<path fill="none" stroke="black" d="M880,-198.28C880,-219.32 880,-251 880,-251 880,-251 1315.22,-251 1315.22,-251"/>
<polygon fill="black" stroke="black" points="1315.22,-254.5 1325.22,-251 1315.22,-247.5 1315.22,-254.5"/>
</g>
<!-- AgendaRoutingModule -->
<g id="node6" class="node">
<title>AgendaRoutingModule</title>
<polygon fill="#8dd3c7" stroke="black" points="1735.2,-198 1732.2,-202 1711.2,-202 1708.2,-198 1586.8,-198 1586.8,-162 1735.2,-162 1735.2,-198"/>
<text text-anchor="middle" x="1661" y="-175.8" font-family="Times,serif" font-size="14.00">AgendaRoutingModule</text>
</g>
<!-- AgendaRoutingModule&#45;&gt;AgendaModule -->
<g id="edge5" class="edge">
<title>AgendaRoutingModule&#45;&gt;AgendaModule</title>
<path fill="none" stroke="black" d="M1661,-198.19C1661,-213.18 1661,-232 1661,-232 1661,-232 1438.76,-232 1438.76,-232"/>
<polygon fill="black" stroke="black" points="1438.76,-228.5 1428.76,-232 1438.76,-235.5 1438.76,-228.5"/>
</g>
<!-- SharedModule -->
<g id="node7" class="node">
<title>SharedModule</title>
<polygon fill="#8dd3c7" stroke="black" points="1851.42,-198 1848.42,-202 1827.42,-202 1824.42,-198 1752.58,-198 1752.58,-162 1851.42,-162 1851.42,-198"/>
<text text-anchor="middle" x="1802" y="-175.8" font-family="Times,serif" font-size="14.00">SharedModule</text>
</g>
<!-- SharedModule&#45;&gt;AgendaModule -->
<g id="edge6" class="edge">
<title>SharedModule&#45;&gt;AgendaModule</title>
<path fill="none" stroke="black" d="M1823.09,-198.03C1823.09,-214.4 1823.09,-236 1823.09,-236 1823.09,-236 1438.61,-236 1438.61,-236"/>
<polygon fill="black" stroke="black" points="1438.61,-232.5 1428.61,-236 1438.61,-239.5 1438.61,-232.5"/>
</g>
<!-- AppointmentModule -->
<g id="node17" class="node">
<title>AppointmentModule</title>
<polygon fill="#8dd3c7" stroke="black" points="542.93,-263 539.93,-267 518.93,-267 515.93,-263 409.07,-263 409.07,-227 542.93,-227 542.93,-263"/>
<text text-anchor="middle" x="476" y="-240.8" font-family="Times,serif" font-size="14.00">AppointmentModule</text>
</g>
<!-- SharedModule&#45;&gt;AppointmentModule -->
<g id="edge16" class="edge">
<title>SharedModule&#45;&gt;AppointmentModule</title>
<path fill="none" stroke="black" d="M1766.85,-198.06C1766.85,-209.44 1766.85,-222 1766.85,-222 1766.85,-222 538.44,-222 538.44,-222 538.44,-222 538.44,-222.49 538.44,-222.49"/>
<polygon fill="black" stroke="black" points="534.94,-216.88 538.44,-226.88 541.94,-216.88 534.94,-216.88"/>
</g>
<!-- AuthenticationModule -->
<g id="node28" class="node">
<title>AuthenticationModule</title>
<polygon fill="#8dd3c7" stroke="black" points="2798.25,-263 2795.25,-267 2774.25,-267 2771.25,-263 2655.75,-263 2655.75,-227 2798.25,-227 2798.25,-263"/>
<text text-anchor="middle" x="2727" y="-240.8" font-family="Times,serif" font-size="14.00">AuthenticationModule</text>
</g>
<!-- SharedModule&#45;&gt;AuthenticationModule -->
<g id="edge27" class="edge">
<title>SharedModule&#45;&gt;AuthenticationModule</title>
<path fill="none" stroke="black" d="M1837.15,-198.32C1837.15,-221.66 1837.15,-259 1837.15,-259 1837.15,-259 2645.68,-259 2645.68,-259"/>
<polygon fill="black" stroke="black" points="2645.68,-262.5 2655.68,-259 2645.68,-255.5 2645.68,-262.5"/>
</g>
<!-- HomeModule -->
<g id="node34" class="node">
<title>HomeModule</title>
<polygon fill="#8dd3c7" stroke="black" points="4147.76,-263 4144.76,-267 4123.76,-267 4120.76,-263 4054.24,-263 4054.24,-227 4147.76,-227 4147.76,-263"/>
<text text-anchor="middle" x="4101" y="-240.8" font-family="Times,serif" font-size="14.00">HomeModule</text>
</g>
<!-- SharedModule&#45;&gt;HomeModule -->
<g id="edge33" class="edge">
<title>SharedModule&#45;&gt;HomeModule</title>
<path fill="none" stroke="black" d="M1780.91,-198.42C1780.91,-207.28 1780.91,-216 1780.91,-216 1780.91,-216 4070.52,-216 4070.52,-216 4070.52,-216 4070.52,-217.08 4070.52,-217.08"/>
<polygon fill="black" stroke="black" points="4067.02,-216.8 4070.52,-226.8 4074.02,-216.8 4067.02,-216.8"/>
</g>
<!-- ProfileModule -->
<g id="node40" class="node">
<title>ProfileModule</title>
<polygon fill="#8dd3c7" stroke="black" points="5079.65,-263 5076.65,-267 5055.65,-267 5052.65,-263 4982.35,-263 4982.35,-227 5079.65,-227 5079.65,-263"/>
<text text-anchor="middle" x="5031" y="-240.8" font-family="Times,serif" font-size="14.00">ProfileModule</text>
</g>
<!-- SharedModule&#45;&gt;ProfileModule -->
<g id="edge39" class="edge">
<title>SharedModule&#45;&gt;ProfileModule</title>
<path fill="none" stroke="black" d="M1794.97,-198.14C1794.97,-204.46 1794.97,-210 1794.97,-210 1794.97,-210 4995.19,-210 4995.19,-210 4995.19,-210 4995.19,-216.68 4995.19,-216.68"/>
<polygon fill="black" stroke="black" points="4991.69,-216.68 4995.19,-226.68 4998.69,-216.68 4991.69,-216.68"/>
</g>
<!-- ServicesModule -->
<g id="node47" class="node">
<title>ServicesModule</title>
<polygon fill="#8dd3c7" stroke="black" points="6207.47,-263 6204.47,-267 6183.47,-267 6180.47,-263 6100.53,-263 6100.53,-227 6207.47,-227 6207.47,-263"/>
<text text-anchor="middle" x="6154" y="-240.8" font-family="Times,serif" font-size="14.00">ServicesModule</text>
</g>
<!-- SharedModule&#45;&gt;ServicesModule -->
<g id="edge47" class="edge">
<title>SharedModule&#45;&gt;ServicesModule</title>
<path fill="none" stroke="black" d="M1809.03,-198.19C1809.03,-201.54 1809.03,-204 1809.03,-204 1809.03,-204 6115.34,-204 6115.34,-204 6115.34,-204 6115.34,-216.9 6115.34,-216.9"/>
<polygon fill="black" stroke="black" points="6111.84,-216.9 6115.34,-226.9 6118.84,-216.9 6111.84,-216.9"/>
</g>
<!-- LoadingSpinnerComponent  -->
<g id="node54" class="node">
<title>LoadingSpinnerComponent </title>
<polygon fill="#fb8072" stroke="black" points="1492.54,-122 1317.46,-122 1317.46,-86 1492.54,-86 1492.54,-122"/>
<text text-anchor="middle" x="1405" y="-99.8" font-family="Times,serif" font-size="14.00">LoadingSpinnerComponent </text>
</g>
<!-- SharedModule&#45;&gt;LoadingSpinnerComponent  -->
<g id="edge52" class="edge">
<title>SharedModule&#45;&gt;LoadingSpinnerComponent </title>
<path fill="none" stroke="black" stroke-dasharray="5,2" d="M1780.91,-161.97C1780.91,-155.15 1780.91,-149 1780.91,-149 1780.91,-149 1441.69,-149 1441.69,-149 1441.69,-149 1441.69,-132.04 1441.69,-132.04"/>
<polygon fill="black" stroke="black" points="1445.19,-132.04 1441.69,-122.04 1438.19,-132.04 1445.19,-132.04"/>
</g>
<!-- PopUpSuccessComponent  -->
<g id="node55" class="node">
<title>PopUpSuccessComponent </title>
<polygon fill="#fb8072" stroke="black" points="1299.04,-122 1130.96,-122 1130.96,-86 1299.04,-86 1299.04,-122"/>
<text text-anchor="middle" x="1215" y="-99.8" font-family="Times,serif" font-size="14.00">PopUpSuccessComponent </text>
</g>
<!-- SharedModule&#45;&gt;PopUpSuccessComponent  -->
<g id="edge53" class="edge">
<title>SharedModule&#45;&gt;PopUpSuccessComponent </title>
<path fill="none" stroke="black" stroke-dasharray="5,2" d="M1766.85,-161.81C1766.85,-158.46 1766.85,-156 1766.85,-156 1766.85,-156 1240.07,-156 1240.07,-156 1240.07,-156 1240.07,-132.19 1240.07,-132.19"/>
<polygon fill="black" stroke="black" points="1243.57,-132.19 1240.07,-122.19 1236.57,-132.19 1243.57,-132.19"/>
</g>
<!-- ValidationMessagesComponent  -->
<g id="node56" class="node">
<title>ValidationMessagesComponent </title>
<polygon fill="#fb8072" stroke="black" points="1709.35,-122 1510.65,-122 1510.65,-86 1709.35,-86 1709.35,-122"/>
<text text-anchor="middle" x="1610" y="-99.8" font-family="Times,serif" font-size="14.00">ValidationMessagesComponent </text>
</g>
<!-- SharedModule&#45;&gt;ValidationMessagesComponent  -->
<g id="edge54" class="edge">
<title>SharedModule&#45;&gt;ValidationMessagesComponent </title>
<path fill="none" stroke="black" stroke-dasharray="5,2" d="M1794.97,-161.89C1794.97,-152.1 1794.97,-142 1794.97,-142 1794.97,-142 1648.04,-142 1648.04,-142 1648.04,-142 1648.04,-132.11 1648.04,-132.11"/>
<polygon fill="black" stroke="black" points="1651.54,-132.11 1648.04,-122.11 1644.54,-132.11 1651.54,-132.11"/>
</g>
<!-- AppComponent -->
<g id="node8" class="node">
<title>AppComponent</title>
<polygon fill="#ffffb3" stroke="black" points="7252.94,-122 7147.06,-122 7147.06,-86 7252.94,-86 7252.94,-122"/>
<text text-anchor="middle" x="7200" y="-99.8" font-family="Times,serif" font-size="14.00">AppComponent</text>
</g>
<!-- AppModule -->
<g id="node11" class="node">
<title>AppModule</title>
<polygon fill="#8dd3c7" stroke="black" points="7176.66,-198 7173.66,-202 7152.66,-202 7149.66,-198 7093.34,-198 7093.34,-162 7176.66,-162 7176.66,-198"/>
<text text-anchor="middle" x="7135" y="-175.8" font-family="Times,serif" font-size="14.00">AppModule</text>
</g>
<!-- AppComponent&#45;&gt;AppModule -->
<g id="edge7" class="edge">
<title>AppComponent&#45;&gt;AppModule</title>
<path fill="none" stroke="black" d="M7162.05,-122.01C7162.05,-122.01 7162.05,-151.85 7162.05,-151.85"/>
<polygon fill="black" stroke="black" points="7158.55,-151.85 7162.05,-161.85 7165.55,-151.85 7158.55,-151.85"/>
</g>
<!-- FooterComponent -->
<g id="node9" class="node">
<title>FooterComponent</title>
<polygon fill="#ffffb3" stroke="black" points="7128.88,-122 7011.12,-122 7011.12,-86 7128.88,-86 7128.88,-122"/>
<text text-anchor="middle" x="7070" y="-99.8" font-family="Times,serif" font-size="14.00">FooterComponent</text>
</g>
<!-- FooterComponent&#45;&gt;AppModule -->
<g id="edge8" class="edge">
<title>FooterComponent&#45;&gt;AppModule</title>
<path fill="none" stroke="black" d="M7111.06,-122.01C7111.06,-122.01 7111.06,-151.85 7111.06,-151.85"/>
<polygon fill="black" stroke="black" points="7107.56,-151.85 7111.06,-161.85 7114.56,-151.85 7107.56,-151.85"/>
</g>
<!-- NavbarComponent -->
<g id="node10" class="node">
<title>NavbarComponent</title>
<polygon fill="#ffffb3" stroke="black" points="7393.03,-122 7270.97,-122 7270.97,-86 7393.03,-86 7393.03,-122"/>
<text text-anchor="middle" x="7332" y="-99.8" font-family="Times,serif" font-size="14.00">NavbarComponent</text>
</g>
<!-- NavbarComponent&#45;&gt;AppModule -->
<g id="edge9" class="edge">
<title>NavbarComponent&#45;&gt;AppModule</title>
<path fill="none" stroke="black" d="M7332,-122.01C7332,-144.49 7332,-180 7332,-180 7332,-180 7186.78,-180 7186.78,-180"/>
<polygon fill="black" stroke="black" points="7186.78,-176.5 7176.78,-180 7186.78,-183.5 7186.78,-176.5"/>
</g>
<!-- AppComponent  -->
<g id="node13" class="node">
<title>AppComponent </title>
<polygon fill="#80b1d3" stroke="black" points="7189.44,-263 7080.56,-263 7080.56,-227 7189.44,-227 7189.44,-263"/>
<text text-anchor="middle" x="7135" y="-240.8" font-family="Times,serif" font-size="14.00">AppComponent </text>
</g>
<!-- AppModule&#45;&gt;AppComponent  -->
<g id="edge11" class="edge">
<title>AppModule&#45;&gt;AppComponent </title>
<path fill="none" stroke="black" stroke-dasharray="1,5" d="M7135,-198.11C7135,-198.11 7135,-216.99 7135,-216.99"/>
<polygon fill="black" stroke="black" points="7131.5,-216.99 7135,-226.99 7138.5,-216.99 7131.5,-216.99"/>
</g>
<!-- AppRoutingModule -->
<g id="node12" class="node">
<title>AppRoutingModule</title>
<polygon fill="#8dd3c7" stroke="black" points="6987.27,-122 6984.27,-126 6963.27,-126 6960.27,-122 6858.73,-122 6858.73,-86 6987.27,-86 6987.27,-122"/>
<text text-anchor="middle" x="6923" y="-99.8" font-family="Times,serif" font-size="14.00">AppRoutingModule</text>
</g>
<!-- AppRoutingModule&#45;&gt;AppModule -->
<g id="edge10" class="edge">
<title>AppRoutingModule&#45;&gt;AppModule</title>
<path fill="none" stroke="black" d="M6923,-122.01C6923,-144.49 6923,-180 6923,-180 6923,-180 7083.12,-180 7083.12,-180"/>
<polygon fill="black" stroke="black" points="7083.12,-183.5 7093.12,-180 7083.12,-176.5 7083.12,-183.5"/>
</g>
<!-- ChatComponent -->
<g id="node14" class="node">
<title>ChatComponent</title>
<polygon fill="#ffffb3" stroke="black" points="529.77,-198 422.23,-198 422.23,-162 529.77,-162 529.77,-198"/>
<text text-anchor="middle" x="476" y="-175.8" font-family="Times,serif" font-size="14.00">ChatComponent</text>
</g>
<!-- ChatComponent&#45;&gt;AppointmentModule -->
<g id="edge12" class="edge">
<title>ChatComponent&#45;&gt;AppointmentModule</title>
<path fill="none" stroke="black" d="M476,-198.11C476,-198.11 476,-216.99 476,-216.99"/>
<polygon fill="black" stroke="black" points="472.5,-216.99 476,-226.99 479.5,-216.99 472.5,-216.99"/>
</g>
<!-- ConsultaPacienteComponent -->
<g id="node15" class="node">
<title>ConsultaPacienteComponent</title>
<polygon fill="#ffffb3" stroke="black" points="404.03,-198 225.97,-198 225.97,-162 404.03,-162 404.03,-198"/>
<text text-anchor="middle" x="315" y="-175.8" font-family="Times,serif" font-size="14.00">ConsultaPacienteComponent</text>
</g>
<!-- ConsultaPacienteComponent&#45;&gt;AppointmentModule -->
<g id="edge13" class="edge">
<title>ConsultaPacienteComponent&#45;&gt;AppointmentModule</title>
<path fill="none" stroke="black" d="M404.15,-180C411.22,-180 415.7,-180 415.7,-180 415.7,-180 415.7,-216.89 415.7,-216.89"/>
<polygon fill="black" stroke="black" points="412.2,-216.89 415.7,-226.89 419.2,-216.89 412.2,-216.89"/>
</g>
<!-- ConsultaProfissionalComponent -->
<g id="node16" class="node">
<title>ConsultaProfissionalComponent</title>
<polygon fill="#ffffb3" stroke="black" points="745.99,-198 548.01,-198 548.01,-162 745.99,-162 745.99,-198"/>
<text text-anchor="middle" x="647" y="-175.8" font-family="Times,serif" font-size="14.00">ConsultaProfissionalComponent</text>
</g>
<!-- ConsultaProfissionalComponent&#45;&gt;AppointmentModule -->
<g id="edge14" class="edge">
<title>ConsultaProfissionalComponent&#45;&gt;AppointmentModule</title>
<path fill="none" stroke="black" d="M548,-180C539.56,-180 534.16,-180 534.16,-180 534.16,-180 534.16,-216.89 534.16,-216.89"/>
<polygon fill="black" stroke="black" points="530.66,-216.89 534.16,-226.89 537.66,-216.89 530.66,-216.89"/>
</g>
<!-- AppointmentRoutingModule -->
<g id="node18" class="node">
<title>AppointmentRoutingModule</title>
<polygon fill="#8dd3c7" stroke="black" points="202.05,-198 199.05,-202 178.05,-202 175.05,-198 23.95,-198 23.95,-162 202.05,-162 202.05,-198"/>
<text text-anchor="middle" x="113" y="-175.8" font-family="Times,serif" font-size="14.00">AppointmentRoutingModule</text>
</g>
<!-- AppointmentRoutingModule&#45;&gt;AppointmentModule -->
<g id="edge15" class="edge">
<title>AppointmentRoutingModule&#45;&gt;AppointmentModule</title>
<path fill="none" stroke="black" d="M113,-198.11C113,-217.34 113,-245 113,-245 113,-245 399,-245 399,-245"/>
<polygon fill="black" stroke="black" points="399,-248.5 409,-245 399,-241.5 399,-248.5"/>
</g>
<!-- AlterarPassComponent -->
<g id="node19" class="node">
<title>AlterarPassComponent</title>
<polygon fill="#ffffb3" stroke="black" points="2971.86,-198 2826.14,-198 2826.14,-162 2971.86,-162 2971.86,-198"/>
<text text-anchor="middle" x="2899" y="-175.8" font-family="Times,serif" font-size="14.00">AlterarPassComponent</text>
</g>
<!-- AlterarPassComponent&#45;&gt;AuthenticationModule -->
<g id="edge17" class="edge">
<title>AlterarPassComponent&#45;&gt;AuthenticationModule</title>
<path fill="none" stroke="black" d="M2899,-198.03C2899,-215.06 2899,-238 2899,-238 2899,-238 2808.45,-238 2808.45,-238"/>
<polygon fill="black" stroke="black" points="2808.45,-234.5 2798.45,-238 2808.45,-241.5 2808.45,-234.5"/>
</g>
<!-- ConfirmEmailComponent -->
<g id="node20" class="node">
<title>ConfirmEmailComponent</title>
<polygon fill="#ffffb3" stroke="black" points="2808.21,-198 2645.79,-198 2645.79,-162 2808.21,-162 2808.21,-198"/>
<text text-anchor="middle" x="2727" y="-175.8" font-family="Times,serif" font-size="14.00">ConfirmEmailComponent</text>
</g>
<!-- ConfirmEmailComponent&#45;&gt;AuthenticationModule -->
<g id="edge18" class="edge">
<title>ConfirmEmailComponent&#45;&gt;AuthenticationModule</title>
<path fill="none" stroke="black" d="M2727,-198.11C2727,-198.11 2727,-216.99 2727,-216.99"/>
<polygon fill="black" stroke="black" points="2723.5,-216.99 2727,-226.99 2730.5,-216.99 2723.5,-216.99"/>
</g>
<!-- FooterAuthenticationComponent -->
<g id="node21" class="node">
<title>FooterAuthenticationComponent</title>
<polygon fill="#ffffb3" stroke="black" points="2627.58,-198 2426.42,-198 2426.42,-162 2627.58,-162 2627.58,-198"/>
<text text-anchor="middle" x="2527" y="-175.8" font-family="Times,serif" font-size="14.00">FooterAuthenticationComponent</text>
</g>
<!-- FooterAuthenticationComponent&#45;&gt;AuthenticationModule -->
<g id="edge19" class="edge">
<title>FooterAuthenticationComponent&#45;&gt;AuthenticationModule</title>
<path fill="none" stroke="black" d="M2527,-198.3C2527,-216.27 2527,-241 2527,-241 2527,-241 2645.64,-241 2645.64,-241"/>
<polygon fill="black" stroke="black" points="2645.64,-244.5 2655.64,-241 2645.64,-237.5 2645.64,-244.5"/>
</g>
<!-- LoginComponent -->
<g id="node22" class="node">
<title>LoginComponent</title>
<polygon fill="#ffffb3" stroke="black" points="2408.28,-198 2293.72,-198 2293.72,-162 2408.28,-162 2408.28,-198"/>
<text text-anchor="middle" x="2351" y="-175.8" font-family="Times,serif" font-size="14.00">LoginComponent</text>
</g>
<!-- LoginComponent&#45;&gt;AuthenticationModule -->
<g id="edge20" class="edge">
<title>LoginComponent&#45;&gt;AuthenticationModule</title>
<path fill="none" stroke="black" d="M2351,-198.11C2351,-217.34 2351,-245 2351,-245 2351,-245 2645.39,-245 2645.39,-245"/>
<polygon fill="black" stroke="black" points="2645.39,-248.5 2655.39,-245 2645.39,-241.5 2645.39,-248.5"/>
</g>
<!-- RecuperarContaComponent -->
<g id="node23" class="node">
<title>RecuperarContaComponent</title>
<polygon fill="#ffffb3" stroke="black" points="2275.29,-198 2102.71,-198 2102.71,-162 2275.29,-162 2275.29,-198"/>
<text text-anchor="middle" x="2189" y="-175.8" font-family="Times,serif" font-size="14.00">RecuperarContaComponent</text>
</g>
<!-- RecuperarContaComponent&#45;&gt;AuthenticationModule -->
<g id="edge21" class="edge">
<title>RecuperarContaComponent&#45;&gt;AuthenticationModule</title>
<path fill="none" stroke="black" d="M2189,-198.03C2189,-218.77 2189,-250 2189,-250 2189,-250 2645.56,-250 2645.56,-250"/>
<polygon fill="black" stroke="black" points="2645.56,-253.5 2655.56,-250 2645.56,-246.5 2645.56,-253.5"/>
</g>
<!-- RecuperarPassComponent -->
<g id="node24" class="node">
<title>RecuperarPassComponent</title>
<polygon fill="#ffffb3" stroke="black" points="3698.74,-198 3535.26,-198 3535.26,-162 3698.74,-162 3698.74,-198"/>
<text text-anchor="middle" x="3617" y="-175.8" font-family="Times,serif" font-size="14.00">RecuperarPassComponent</text>
</g>
<!-- RecuperarPassComponent&#45;&gt;AuthenticationModule -->
<g id="edge22" class="edge">
<title>RecuperarPassComponent&#45;&gt;AuthenticationModule</title>
<path fill="none" stroke="black" d="M3617,-198.09C3617,-221.13 3617,-258 3617,-258 3617,-258 2808.33,-258 2808.33,-258"/>
<polygon fill="black" stroke="black" points="2808.33,-254.5 2798.33,-258 2808.33,-261.5 2808.33,-254.5"/>
</g>
<!-- RegisterWithGoogleComponent -->
<g id="node25" class="node">
<title>RegisterWithGoogleComponent</title>
<polygon fill="#ffffb3" stroke="black" points="3517.69,-198 3320.31,-198 3320.31,-162 3517.69,-162 3517.69,-198"/>
<text text-anchor="middle" x="3419" y="-175.8" font-family="Times,serif" font-size="14.00">RegisterWithGoogleComponent</text>
</g>
<!-- RegisterWithGoogleComponent&#45;&gt;AuthenticationModule -->
<g id="edge23" class="edge">
<title>RegisterWithGoogleComponent&#45;&gt;AuthenticationModule</title>
<path fill="none" stroke="black" d="M3419,-198.04C3419,-219.66 3419,-253 3419,-253 3419,-253 2808.45,-253 2808.45,-253"/>
<polygon fill="black" stroke="black" points="2808.45,-249.5 2798.45,-253 2808.45,-256.5 2808.45,-249.5"/>
</g>
<!-- RegistoComponent -->
<g id="node26" class="node">
<title>RegistoComponent</title>
<polygon fill="#ffffb3" stroke="black" points="3302.11,-198 3177.89,-198 3177.89,-162 3302.11,-162 3302.11,-198"/>
<text text-anchor="middle" x="3240" y="-175.8" font-family="Times,serif" font-size="14.00">RegistoComponent</text>
</g>
<!-- RegistoComponent&#45;&gt;AuthenticationModule -->
<g id="edge24" class="edge">
<title>RegistoComponent&#45;&gt;AuthenticationModule</title>
<path fill="none" stroke="black" d="M3240,-198.22C3240,-218.37 3240,-248 3240,-248 3240,-248 2808.33,-248 2808.33,-248"/>
<polygon fill="black" stroke="black" points="2808.33,-244.5 2798.33,-248 2808.33,-251.5 2808.33,-244.5"/>
</g>
<!-- UnlockAccountComponent -->
<g id="node27" class="node">
<title>UnlockAccountComponent</title>
<polygon fill="#ffffb3" stroke="black" points="3159.97,-198 2990.03,-198 2990.03,-162 3159.97,-162 3159.97,-198"/>
<text text-anchor="middle" x="3075" y="-175.8" font-family="Times,serif" font-size="14.00">UnlockAccountComponent</text>
</g>
<!-- UnlockAccountComponent&#45;&gt;AuthenticationModule -->
<g id="edge25" class="edge">
<title>UnlockAccountComponent&#45;&gt;AuthenticationModule</title>
<path fill="none" stroke="black" d="M3075,-198.22C3075,-216.83 3075,-243 3075,-243 3075,-243 2808.26,-243 2808.26,-243"/>
<polygon fill="black" stroke="black" points="2808.26,-239.5 2798.26,-243 2808.26,-246.5 2808.26,-239.5"/>
</g>
<!-- AuthenticationRoutingModule -->
<g id="node29" class="node">
<title>AuthenticationRoutingModule</title>
<polygon fill="#8dd3c7" stroke="black" points="2078.87,-198 2075.87,-202 2054.87,-202 2051.87,-198 1891.13,-198 1891.13,-162 2078.87,-162 2078.87,-198"/>
<text text-anchor="middle" x="1985" y="-175.8" font-family="Times,serif" font-size="14.00">AuthenticationRoutingModule</text>
</g>
<!-- AuthenticationRoutingModule&#45;&gt;AuthenticationModule -->
<g id="edge26" class="edge">
<title>AuthenticationRoutingModule&#45;&gt;AuthenticationModule</title>
<path fill="none" stroke="black" d="M1985,-198.29C1985,-220.21 1985,-254 1985,-254 1985,-254 2645.52,-254 2645.52,-254"/>
<polygon fill="black" stroke="black" points="2645.52,-257.5 2655.52,-254 2645.52,-250.5 2645.52,-257.5"/>
</g>
<!-- AboutUsComponent -->
<g id="node30" class="node">
<title>AboutUsComponent</title>
<polygon fill="#ffffb3" stroke="black" points="4590.88,-198 4459.12,-198 4459.12,-162 4590.88,-162 4590.88,-198"/>
<text text-anchor="middle" x="4525" y="-175.8" font-family="Times,serif" font-size="14.00">AboutUsComponent</text>
</g>
<!-- AboutUsComponent&#45;&gt;HomeModule -->
<g id="edge28" class="edge">
<title>AboutUsComponent&#45;&gt;HomeModule</title>
<path fill="none" stroke="black" d="M4525,-198.29C4525,-220.21 4525,-254 4525,-254 4525,-254 4158,-254 4158,-254"/>
<polygon fill="black" stroke="black" points="4158,-250.5 4148,-254 4158,-257.5 4158,-250.5"/>
</g>
<!-- HomePageComponent -->
<g id="node31" class="node">
<title>HomePageComponent</title>
<polygon fill="#ffffb3" stroke="black" points="4441.26,-198 4298.74,-198 4298.74,-162 4441.26,-162 4441.26,-198"/>
<text text-anchor="middle" x="4370" y="-175.8" font-family="Times,serif" font-size="14.00">HomePageComponent</text>
</g>
<!-- HomePageComponent&#45;&gt;HomeModule -->
<g id="edge29" class="edge">
<title>HomePageComponent&#45;&gt;HomeModule</title>
<path fill="none" stroke="black" d="M4370,-198.11C4370,-217.34 4370,-245 4370,-245 4370,-245 4157.86,-245 4157.86,-245"/>
<polygon fill="black" stroke="black" points="4157.86,-241.5 4147.86,-245 4157.86,-248.5 4157.86,-241.5"/>
</g>
<!-- PrivacyPolicyComponent -->
<g id="node32" class="node">
<title>PrivacyPolicyComponent</title>
<polygon fill="#ffffb3" stroke="black" points="4280.87,-198 4121.13,-198 4121.13,-162 4280.87,-162 4280.87,-198"/>
<text text-anchor="middle" x="4201" y="-175.8" font-family="Times,serif" font-size="14.00">PrivacyPolicyComponent</text>
</g>
<!-- PrivacyPolicyComponent&#45;&gt;HomeModule -->
<g id="edge30" class="edge">
<title>PrivacyPolicyComponent&#45;&gt;HomeModule</title>
<path fill="none" stroke="black" d="M4134.47,-198.11C4134.47,-198.11 4134.47,-216.99 4134.47,-216.99"/>
<polygon fill="black" stroke="black" points="4130.97,-216.99 4134.47,-226.99 4137.97,-216.99 4130.97,-216.99"/>
</g>
<!-- TermsAndConditionsComponent -->
<g id="node33" class="node">
<title>TermsAndConditionsComponent</title>
<polygon fill="#ffffb3" stroke="black" points="4103.16,-198 3900.84,-198 3900.84,-162 4103.16,-162 4103.16,-198"/>
<text text-anchor="middle" x="4002" y="-175.8" font-family="Times,serif" font-size="14.00">TermsAndConditionsComponent</text>
</g>
<!-- TermsAndConditionsComponent&#45;&gt;HomeModule -->
<g id="edge31" class="edge">
<title>TermsAndConditionsComponent&#45;&gt;HomeModule</title>
<path fill="none" stroke="black" d="M4086.92,-198.11C4086.92,-198.11 4086.92,-216.99 4086.92,-216.99"/>
<polygon fill="black" stroke="black" points="4083.42,-216.99 4086.92,-226.99 4090.42,-216.99 4083.42,-216.99"/>
</g>
<!-- HomeRoutingModule -->
<g id="node35" class="node">
<title>HomeRoutingModule</title>
<polygon fill="#8dd3c7" stroke="black" points="3877.38,-198 3874.38,-202 3853.38,-202 3850.38,-198 3738.62,-198 3738.62,-162 3877.38,-162 3877.38,-198"/>
<text text-anchor="middle" x="3808" y="-175.8" font-family="Times,serif" font-size="14.00">HomeRoutingModule</text>
</g>
<!-- HomeRoutingModule&#45;&gt;HomeModule -->
<g id="edge32" class="edge">
<title>HomeRoutingModule&#45;&gt;HomeModule</title>
<path fill="none" stroke="black" d="M3808,-198.24C3808,-213.57 3808,-233 3808,-233 3808,-233 4043.92,-233 4043.92,-233"/>
<polygon fill="black" stroke="black" points="4043.92,-236.5 4053.92,-233 4043.92,-229.5 4043.92,-236.5"/>
</g>
<!-- EditPerfilComponent -->
<g id="node36" class="node">
<title>EditPerfilComponent</title>
<polygon fill="#ffffb3" stroke="black" points="5598.77,-198 5463.23,-198 5463.23,-162 5598.77,-162 5598.77,-198"/>
<text text-anchor="middle" x="5531" y="-175.8" font-family="Times,serif" font-size="14.00">EditPerfilComponent</text>
</g>
<!-- EditPerfilComponent&#45;&gt;ProfileModule -->
<g id="edge34" class="edge">
<title>EditPerfilComponent&#45;&gt;ProfileModule</title>
<path fill="none" stroke="black" d="M5531,-198.27C5531,-216.56 5531,-242 5531,-242 5531,-242 5089.85,-242 5089.85,-242"/>
<polygon fill="black" stroke="black" points="5089.85,-238.5 5079.85,-242 5089.85,-245.5 5089.85,-238.5"/>
</g>
<!-- PerfilPacienteComponent -->
<g id="node37" class="node">
<title>PerfilPacienteComponent</title>
<polygon fill="#ffffb3" stroke="black" points="5444.85,-198 5285.15,-198 5285.15,-162 5444.85,-162 5444.85,-198"/>
<text text-anchor="middle" x="5365" y="-175.8" font-family="Times,serif" font-size="14.00">PerfilPacienteComponent</text>
</g>
<!-- PerfilPacienteComponent&#45;&gt;ProfileModule -->
<g id="edge35" class="edge">
<title>PerfilPacienteComponent&#45;&gt;ProfileModule</title>
<path fill="none" stroke="black" d="M5365,-198.01C5365,-214.05 5365,-235 5365,-235 5365,-235 5089.92,-235 5089.92,-235"/>
<polygon fill="black" stroke="black" points="5089.92,-231.5 5079.92,-235 5089.92,-238.5 5089.92,-231.5"/>
</g>
<!-- PrivateProfileProfessionalComponent -->
<g id="node38" class="node">
<title>PrivateProfileProfessionalComponent</title>
<polygon fill="#ffffb3" stroke="black" points="5267.29,-198 5038.71,-198 5038.71,-162 5267.29,-162 5267.29,-198"/>
<text text-anchor="middle" x="5153" y="-175.8" font-family="Times,serif" font-size="14.00">PrivateProfileProfessionalComponent</text>
</g>
<!-- PrivateProfileProfessionalComponent&#45;&gt;ProfileModule -->
<g id="edge36" class="edge">
<title>PrivateProfileProfessionalComponent&#45;&gt;ProfileModule</title>
<path fill="none" stroke="black" d="M5059.34,-198.11C5059.34,-198.11 5059.34,-216.99 5059.34,-216.99"/>
<polygon fill="black" stroke="black" points="5055.84,-216.99 5059.34,-226.99 5062.84,-216.99 5055.84,-216.99"/>
</g>
<!-- PublicProfileProfessionalComponent -->
<g id="node39" class="node">
<title>PublicProfileProfessionalComponent</title>
<polygon fill="#ffffb3" stroke="black" points="5021.41,-198 4796.59,-198 4796.59,-162 5021.41,-162 5021.41,-198"/>
<text text-anchor="middle" x="4909" y="-175.8" font-family="Times,serif" font-size="14.00">PublicProfileProfessionalComponent</text>
</g>
<!-- PublicProfileProfessionalComponent&#45;&gt;ProfileModule -->
<g id="edge37" class="edge">
<title>PublicProfileProfessionalComponent&#45;&gt;ProfileModule</title>
<path fill="none" stroke="black" d="M5008.2,-198.11C5008.2,-198.11 5008.2,-216.99 5008.2,-216.99"/>
<polygon fill="black" stroke="black" points="5004.7,-216.99 5008.2,-226.99 5011.7,-216.99 5004.7,-216.99"/>
</g>
<!-- ProfileRoutingModule -->
<g id="node41" class="node">
<title>ProfileRoutingModule</title>
<polygon fill="#8dd3c7" stroke="black" points="4773.27,-198 4770.27,-202 4749.27,-202 4746.27,-198 4630.73,-198 4630.73,-162 4773.27,-162 4773.27,-198"/>
<text text-anchor="middle" x="4702" y="-175.8" font-family="Times,serif" font-size="14.00">ProfileRoutingModule</text>
</g>
<!-- ProfileRoutingModule&#45;&gt;ProfileModule -->
<g id="edge38" class="edge">
<title>ProfileRoutingModule&#45;&gt;ProfileModule</title>
<path fill="none" stroke="black" d="M4702,-198.03C4702,-214.4 4702,-236 4702,-236 4702,-236 4972.1,-236 4972.1,-236"/>
<polygon fill="black" stroke="black" points="4972.1,-239.5 4982.1,-236 4972.1,-232.5 4972.1,-239.5"/>
</g>
<!-- MapaComponent -->
<g id="node42" class="node">
<title>MapaComponent</title>
<polygon fill="#ffffb3" stroke="black" points="6626.71,-198 6513.29,-198 6513.29,-162 6626.71,-162 6626.71,-198"/>
<text text-anchor="middle" x="6570" y="-175.8" font-family="Times,serif" font-size="14.00">MapaComponent</text>
</g>
<!-- MapaComponent&#45;&gt;ServicesModule -->
<g id="edge40" class="edge">
<title>MapaComponent&#45;&gt;ServicesModule</title>
<path fill="none" stroke="black" d="M6570,-198.11C6570,-217.34 6570,-245 6570,-245 6570,-245 6217.53,-245 6217.53,-245"/>
<polygon fill="black" stroke="black" points="6217.53,-241.5 6207.53,-245 6217.53,-248.5 6217.53,-241.5"/>
</g>
<!-- MarcacoesComponent -->
<g id="node43" class="node">
<title>MarcacoesComponent</title>
<polygon fill="#ffffb3" stroke="black" points="6494.96,-198 6353.04,-198 6353.04,-162 6494.96,-162 6494.96,-198"/>
<text text-anchor="middle" x="6424" y="-175.8" font-family="Times,serif" font-size="14.00">MarcacoesComponent</text>
</g>
<!-- MarcacoesComponent&#45;&gt;ServicesModule -->
<g id="edge41" class="edge">
<title>MarcacoesComponent&#45;&gt;ServicesModule</title>
<path fill="none" stroke="black" d="M6424,-198.03C6424,-214.4 6424,-236 6424,-236 6424,-236 6217.67,-236 6217.67,-236"/>
<polygon fill="black" stroke="black" points="6217.67,-232.5 6207.67,-236 6217.67,-239.5 6217.67,-232.5"/>
</g>
<!-- MarcarConsultaComponent -->
<g id="node44" class="node">
<title>MarcarConsultaComponent</title>
<polygon fill="#ffffb3" stroke="black" points="6334.52,-198 6163.48,-198 6163.48,-162 6334.52,-162 6334.52,-198"/>
<text text-anchor="middle" x="6249" y="-175.8" font-family="Times,serif" font-size="14.00">MarcarConsultaComponent</text>
</g>
<!-- MarcarConsultaComponent&#45;&gt;ServicesModule -->
<g id="edge42" class="edge">
<title>MarcarConsultaComponent&#45;&gt;ServicesModule</title>
<path fill="none" stroke="black" d="M6185.36,-198.11C6185.36,-198.11 6185.36,-216.99 6185.36,-216.99"/>
<polygon fill="black" stroke="black" points="6181.86,-216.99 6185.36,-226.99 6188.86,-216.99 6181.86,-216.99"/>
</g>
<!-- PaymentFailureComponent -->
<g id="node45" class="node">
<title>PaymentFailureComponent</title>
<polygon fill="#ffffb3" stroke="black" points="6144.98,-198 5975.02,-198 5975.02,-162 6144.98,-162 6144.98,-198"/>
<text text-anchor="middle" x="6060" y="-175.8" font-family="Times,serif" font-size="14.00">PaymentFailureComponent</text>
</g>
<!-- PaymentFailureComponent&#45;&gt;ServicesModule -->
<g id="edge43" class="edge">
<title>PaymentFailureComponent&#45;&gt;ServicesModule</title>
<path fill="none" stroke="black" d="M6130.16,-198.11C6130.16,-198.11 6130.16,-216.99 6130.16,-216.99"/>
<polygon fill="black" stroke="black" points="6126.66,-216.99 6130.16,-226.99 6133.66,-216.99 6126.66,-216.99"/>
</g>
<!-- PaymentSuccessComponent -->
<g id="node46" class="node">
<title>PaymentSuccessComponent</title>
<polygon fill="#ffffb3" stroke="black" points="6819.14,-198 6644.86,-198 6644.86,-162 6819.14,-162 6819.14,-198"/>
<text text-anchor="middle" x="6732" y="-175.8" font-family="Times,serif" font-size="14.00">PaymentSuccessComponent</text>
</g>
<!-- PaymentSuccessComponent&#45;&gt;ServicesModule -->
<g id="edge44" class="edge">
<title>PaymentSuccessComponent&#45;&gt;ServicesModule</title>
<path fill="none" stroke="black" d="M6732,-198.29C6732,-220.21 6732,-254 6732,-254 6732,-254 6217.6,-254 6217.6,-254"/>
<polygon fill="black" stroke="black" points="6217.6,-250.5 6207.6,-254 6217.6,-257.5 6217.6,-250.5"/>
</g>
<!-- CalendarioComponent -->
<g id="node48" class="node">
<title>CalendarioComponent</title>
<polygon fill="#8dd3c7" stroke="black" points="5951.25,-198 5948.25,-202 5927.25,-202 5924.25,-198 5808.75,-198 5808.75,-162 5951.25,-162 5951.25,-198"/>
<text text-anchor="middle" x="5880" y="-175.8" font-family="Times,serif" font-size="14.00">CalendarioComponent</text>
</g>
<!-- CalendarioComponent&#45;&gt;ServicesModule -->
<g id="edge45" class="edge">
<title>CalendarioComponent&#45;&gt;ServicesModule</title>
<path fill="none" stroke="black" d="M5880,-198.13C5880,-218.57 5880,-249 5880,-249 5880,-249 6090.52,-249 6090.52,-249"/>
<polygon fill="black" stroke="black" points="6090.52,-252.5 6100.52,-249 6090.52,-245.5 6090.52,-252.5"/>
</g>
<!-- ServicesRoutingModule -->
<g id="node49" class="node">
<title>ServicesRoutingModule</title>
<polygon fill="#8dd3c7" stroke="black" points="5791.09,-198 5788.09,-202 5767.09,-202 5764.09,-198 5638.91,-198 5638.91,-162 5791.09,-162 5791.09,-198"/>
<text text-anchor="middle" x="5715" y="-175.8" font-family="Times,serif" font-size="14.00">ServicesRoutingModule</text>
</g>
<!-- ServicesRoutingModule&#45;&gt;ServicesModule -->
<g id="edge46" class="edge">
<title>ServicesRoutingModule&#45;&gt;ServicesModule</title>
<path fill="none" stroke="black" d="M5715,-198.01C5715,-220.49 5715,-256 5715,-256 5715,-256 6090.17,-256 6090.17,-256"/>
<polygon fill="black" stroke="black" points="6090.17,-259.5 6100.17,-256 6090.17,-252.5 6090.17,-259.5"/>
</g>
<!-- LoadingSpinnerComponent -->
<g id="node50" class="node">
<title>LoadingSpinnerComponent</title>
<polygon fill="#ffffb3" stroke="black" points="2060.54,-122 1889.46,-122 1889.46,-86 2060.54,-86 2060.54,-122"/>
<text text-anchor="middle" x="1975" y="-99.8" font-family="Times,serif" font-size="14.00">LoadingSpinnerComponent</text>
</g>
<!-- LoadingSpinnerComponent&#45;&gt;SharedModule -->
<g id="edge48" class="edge">
<title>LoadingSpinnerComponent&#45;&gt;SharedModule</title>
<path fill="none" stroke="black" d="M1889.24,-104C1883.62,-104 1880.14,-104 1880.14,-104 1880.14,-104 1880.14,-180 1880.14,-180 1880.14,-180 1861.49,-180 1861.49,-180"/>
<polygon fill="black" stroke="black" points="1861.49,-176.5 1851.49,-180 1861.49,-183.5 1861.49,-176.5"/>
</g>
<!-- NotFoundComponent -->
<g id="node51" class="node">
<title>NotFoundComponent</title>
<polygon fill="#ffffb3" stroke="black" points="1871.11,-122 1732.89,-122 1732.89,-86 1871.11,-86 1871.11,-122"/>
<text text-anchor="middle" x="1802" y="-99.8" font-family="Times,serif" font-size="14.00">NotFoundComponent</text>
</g>
<!-- NotFoundComponent&#45;&gt;SharedModule -->
<g id="edge49" class="edge">
<title>NotFoundComponent&#45;&gt;SharedModule</title>
<path fill="none" stroke="black" d="M1809.03,-122.01C1809.03,-122.01 1809.03,-151.85 1809.03,-151.85"/>
<polygon fill="black" stroke="black" points="1805.53,-151.85 1809.03,-161.85 1812.53,-151.85 1805.53,-151.85"/>
</g>
<!-- PopUpSuccessComponent -->
<g id="node52" class="node">
<title>PopUpSuccessComponent</title>
<polygon fill="#ffffb3" stroke="black" points="2456.04,-122 2291.96,-122 2291.96,-86 2456.04,-86 2456.04,-122"/>
<text text-anchor="middle" x="2374" y="-99.8" font-family="Times,serif" font-size="14.00">PopUpSuccessComponent</text>
</g>
<!-- PopUpSuccessComponent&#45;&gt;SharedModule -->
<g id="edge50" class="edge">
<title>PopUpSuccessComponent&#45;&gt;SharedModule</title>
<path fill="none" stroke="black" d="M2351,-122.24C2351,-129.43 2351,-136 2351,-136 2351,-136 1837.15,-136 1837.15,-136 1837.15,-136 1837.15,-151.85 1837.15,-151.85"/>
<polygon fill="black" stroke="black" points="1833.65,-151.85 1837.15,-161.85 1840.65,-151.85 1833.65,-151.85"/>
</g>
<!-- ValidationMessagesComponent -->
<g id="node53" class="node">
<title>ValidationMessagesComponent</title>
<polygon fill="#ffffb3" stroke="black" points="2273.35,-122 2078.65,-122 2078.65,-86 2273.35,-86 2273.35,-122"/>
<text text-anchor="middle" x="2176" y="-99.8" font-family="Times,serif" font-size="14.00">ValidationMessagesComponent</text>
</g>
<!-- ValidationMessagesComponent&#45;&gt;SharedModule -->
<g id="edge51" class="edge">
<title>ValidationMessagesComponent&#45;&gt;SharedModule</title>
<path fill="none" stroke="black" d="M2090.9,-122.17C2090.9,-126.05 2090.9,-129 2090.9,-129 2090.9,-129 1823.09,-129 1823.09,-129 1823.09,-129 1823.09,-151.88 1823.09,-151.88"/>
<polygon fill="black" stroke="black" points="1819.59,-151.88 1823.09,-161.88 1826.59,-151.88 1819.59,-151.88"/>
</g>
</g>
</svg>
