<?xml version="1.0" encoding="UTF-8" standalone="no"?>
<!DOCTYPE svg PUBLIC "-//W3C//DTD SVG 1.1//EN"
 "http://www.w3.org/Graphics/SVG/1.1/DTD/svg11.dtd">
<!-- Generated by graphviz version 2.47.0 (20210316.0004)
 -->
<!-- Title: dependencies Pages: 1 -->
<svg width="768pt" height="211pt"
 viewBox="0.00 0.00 768.00 211.00" xmlns="http://www.w3.org/2000/svg" xmlns:xlink="http://www.w3.org/1999/xlink">
<g id="graph0" class="graph" transform="scale(1 1) rotate(0) translate(4 207)">
<title>dependencies</title>
<polygon fill="white" stroke="transparent" points="-4,4 -4,-207 764,-207 764,4 -4,4"/>
<text text-anchor="start" x="359.01" y="-42.4" font-family="Times-12" font-weight="bold" font-size="14.00">Legend</text>
<polygon fill="#ffffb3" stroke="transparent" points="146,-10 146,-30 166,-30 166,-10 146,-10"/>
<text text-anchor="start" x="169.63" y="-15.4" font-family="Times-12" font-size="14.00"> &#160;Declarations</text>
<polygon fill="#8dd3c7" stroke="transparent" points="259,-10 259,-30 279,-30 279,-10 259,-10"/>
<text text-anchor="start" x="282.73" y="-15.4" font-family="Times-12" font-size="14.00"> &#160;Module</text>
<polygon fill="#80b1d3" stroke="transparent" points="345,-10 345,-30 365,-30 365,-10 345,-10"/>
<text text-anchor="start" x="368.78" y="-15.4" font-family="Times-12" font-size="14.00"> &#160;Bootstrap</text>
<polygon fill="#fdb462" stroke="transparent" points="442,-10 442,-30 462,-30 462,-10 442,-10"/>
<text text-anchor="start" x="465.67" y="-15.4" font-family="Times-12" font-size="14.00"> &#160;Providers</text>
<polygon fill="#fb8072" stroke="transparent" points="538,-10 538,-30 558,-30 558,-10 538,-10"/>
<text text-anchor="start" x="561.73" y="-15.4" font-family="Times-12" font-size="14.00"> &#160;Exports</text>
<g id="clust1" class="cluster">
<title>cluster_AppointmentModule</title>
<polygon fill="none" stroke="black" stroke-dasharray="1,5" points="8,-70 8,-195 752,-195 752,-70 8,-70"/>
</g>
<g id="clust2" class="cluster">
<title>cluster_AppointmentModule_declarations</title>
<polygon fill="none" stroke="black" points="334,-78 334,-130 744,-130 744,-78 334,-78"/>
</g>
<g id="clust5" class="cluster">
<title>cluster_AppointmentModule_imports</title>
<polygon fill="none" stroke="black" points="16,-78 16,-130 326,-130 326,-78 16,-78"/>
</g>
<!-- ConsultaPacienteComponent -->
<g id="node1" class="node">
<title>ConsultaPacienteComponent</title>
<polygon fill="#ffffb3" stroke="black" points="736.03,-122 557.97,-122 557.97,-86 736.03,-86 736.03,-122"/>
<text text-anchor="middle" x="647" y="-99.8" font-family="Times,serif" font-size="14.00">ConsultaPacienteComponent</text>
</g>
<!-- AppointmentModule -->
<g id="node3" class="node">
<title>AppointmentModule</title>
<polygon fill="#8dd3c7" stroke="black" points="401.93,-187 398.93,-191 377.93,-191 374.93,-187 268.07,-187 268.07,-151 401.93,-151 401.93,-187"/>
<text text-anchor="middle" x="335" y="-164.8" font-family="Times,serif" font-size="14.00">AppointmentModule</text>
</g>
<!-- ConsultaPacienteComponent&#45;&gt;AppointmentModule -->
<g id="edge1" class="edge">
<title>ConsultaPacienteComponent&#45;&gt;AppointmentModule</title>
<path fill="none" stroke="black" d="M647,-122.11C647,-141.34 647,-169 647,-169 647,-169 411.93,-169 411.93,-169"/>
<polygon fill="black" stroke="black" points="411.93,-165.5 401.93,-169 411.93,-172.5 411.93,-165.5"/>
</g>
<!-- ConsultaProfissionalComponent -->
<g id="node2" class="node">
<title>ConsultaProfissionalComponent</title>
<polygon fill="#ffffb3" stroke="black" points="539.99,-122 342.01,-122 342.01,-86 539.99,-86 539.99,-122"/>
<text text-anchor="middle" x="441" y="-99.8" font-family="Times,serif" font-size="14.00">ConsultaProfissionalComponent</text>
</g>
<!-- ConsultaProfissionalComponent&#45;&gt;AppointmentModule -->
<g id="edge2" class="edge">
<title>ConsultaProfissionalComponent&#45;&gt;AppointmentModule</title>
<path fill="none" stroke="black" d="M371.86,-122.11C371.86,-122.11 371.86,-140.99 371.86,-140.99"/>
<polygon fill="black" stroke="black" points="368.36,-140.99 371.86,-150.99 375.36,-140.99 368.36,-140.99"/>
</g>
<!-- AppointmentRoutingModule -->
<g id="node4" class="node">
<title>AppointmentRoutingModule</title>
<polygon fill="#8dd3c7" stroke="black" points="318.05,-122 315.05,-126 294.05,-126 291.05,-122 139.95,-122 139.95,-86 318.05,-86 318.05,-122"/>
<text text-anchor="middle" x="229" y="-99.8" font-family="Times,serif" font-size="14.00">AppointmentRoutingModule</text>
</g>
<!-- AppointmentRoutingModule&#45;&gt;AppointmentModule -->
<g id="edge3" class="edge">
<title>AppointmentRoutingModule&#45;&gt;AppointmentModule</title>
<path fill="none" stroke="black" d="M293.28,-122.11C293.28,-122.11 293.28,-140.99 293.28,-140.99"/>
<polygon fill="black" stroke="black" points="289.78,-140.99 293.28,-150.99 296.78,-140.99 289.78,-140.99"/>
</g>
<!-- SharedModule -->
<g id="node5" class="node">
<title>SharedModule</title>
<polygon fill="#8dd3c7" stroke="black" points="122.42,-122 119.42,-126 98.42,-126 95.42,-122 23.58,-122 23.58,-86 122.42,-86 122.42,-122"/>
<text text-anchor="middle" x="73" y="-99.8" font-family="Times,serif" font-size="14.00">SharedModule</text>
</g>
<!-- SharedModule&#45;&gt;AppointmentModule -->
<g id="edge4" class="edge">
<title>SharedModule&#45;&gt;AppointmentModule</title>
<path fill="none" stroke="black" d="M73,-122.11C73,-141.34 73,-169 73,-169 73,-169 258.21,-169 258.21,-169"/>
<polygon fill="black" stroke="black" points="258.21,-172.5 268.21,-169 258.21,-165.5 258.21,-172.5"/>
</g>
</g>
</svg>
