<?xml version="1.0" encoding="UTF-8" standalone="no"?>
<!DOCTYPE svg PUBLIC "-//W3C//DTD SVG 1.1//EN"
 "http://www.w3.org/Graphics/SVG/1.1/DTD/svg11.dtd">
<!-- Generated by graphviz version 2.47.0 (20210316.0004)
 -->
<!-- Title: dependencies Pages: 1 -->
<svg width="1141pt" height="211pt"
 viewBox="0.00 0.00 1141.00 211.00" xmlns="http://www.w3.org/2000/svg" xmlns:xlink="http://www.w3.org/1999/xlink">
<g id="graph0" class="graph" transform="scale(1 1) rotate(0) translate(4 207)">
<title>dependencies</title>
<polygon fill="white" stroke="transparent" points="-4,4 -4,-207 1137,-207 1137,4 -4,4"/>
<text text-anchor="start" x="545.51" y="-42.4" font-family="Times-12" font-weight="bold" font-size="14.00">Legend</text>
<polygon fill="#ffffb3" stroke="transparent" points="332.5,-10 332.5,-30 352.5,-30 352.5,-10 332.5,-10"/>
<text text-anchor="start" x="356.13" y="-15.4" font-family="Times-12" font-size="14.00"> &#160;Declarations</text>
<polygon fill="#8dd3c7" stroke="transparent" points="445.5,-10 445.5,-30 465.5,-30 465.5,-10 445.5,-10"/>
<text text-anchor="start" x="469.23" y="-15.4" font-family="Times-12" font-size="14.00"> &#160;Module</text>
<polygon fill="#80b1d3" stroke="transparent" points="531.5,-10 531.5,-30 551.5,-30 551.5,-10 531.5,-10"/>
<text text-anchor="start" x="555.28" y="-15.4" font-family="Times-12" font-size="14.00"> &#160;Bootstrap</text>
<polygon fill="#fdb462" stroke="transparent" points="628.5,-10 628.5,-30 648.5,-30 648.5,-10 628.5,-10"/>
<text text-anchor="start" x="652.17" y="-15.4" font-family="Times-12" font-size="14.00"> &#160;Providers</text>
<polygon fill="#fb8072" stroke="transparent" points="724.5,-10 724.5,-30 744.5,-30 744.5,-10 724.5,-10"/>
<text text-anchor="start" x="748.23" y="-15.4" font-family="Times-12" font-size="14.00"> &#160;Exports</text>
<g id="clust1" class="cluster">
<title>cluster_ProfileModule</title>
<polygon fill="none" stroke="black" stroke-dasharray="1,5" points="8,-70 8,-195 1125,-195 1125,-70 8,-70"/>
</g>
<g id="clust7" class="cluster">
<title>cluster_ProfileModule_imports</title>
<polygon fill="none" stroke="black" points="842,-78 842,-130 1117,-130 1117,-78 842,-78"/>
</g>
<g id="clust2" class="cluster">
<title>cluster_ProfileModule_declarations</title>
<polygon fill="none" stroke="black" points="16,-78 16,-130 834,-130 834,-78 16,-78"/>
</g>
<!-- EditPerfilComponent -->
<g id="node1" class="node">
<title>EditPerfilComponent</title>
<polygon fill="#ffffb3" stroke="black" points="825.77,-122 690.23,-122 690.23,-86 825.77,-86 825.77,-122"/>
<text text-anchor="middle" x="758" y="-99.8" font-family="Times,serif" font-size="14.00">EditPerfilComponent</text>
</g>
<!-- ProfileModule -->
<g id="node5" class="node">
<title>ProfileModule</title>
<polygon fill="#8dd3c7" stroke="black" points="723.65,-187 720.65,-191 699.65,-191 696.65,-187 626.35,-187 626.35,-151 723.65,-151 723.65,-187"/>
<text text-anchor="middle" x="675" y="-164.8" font-family="Times,serif" font-size="14.00">ProfileModule</text>
</g>
<!-- EditPerfilComponent&#45;&gt;ProfileModule -->
<g id="edge1" class="edge">
<title>EditPerfilComponent&#45;&gt;ProfileModule</title>
<path fill="none" stroke="black" d="M706.97,-122.11C706.97,-122.11 706.97,-140.99 706.97,-140.99"/>
<polygon fill="black" stroke="black" points="703.47,-140.99 706.97,-150.99 710.47,-140.99 703.47,-140.99"/>
</g>
<!-- PerfilPacienteComponent -->
<g id="node2" class="node">
<title>PerfilPacienteComponent</title>
<polygon fill="#ffffb3" stroke="black" points="671.85,-122 512.15,-122 512.15,-86 671.85,-86 671.85,-122"/>
<text text-anchor="middle" x="592" y="-99.8" font-family="Times,serif" font-size="14.00">PerfilPacienteComponent</text>
</g>
<!-- PerfilPacienteComponent&#45;&gt;ProfileModule -->
<g id="edge2" class="edge">
<title>PerfilPacienteComponent&#45;&gt;ProfileModule</title>
<path fill="none" stroke="black" d="M649.05,-122.11C649.05,-122.11 649.05,-140.99 649.05,-140.99"/>
<polygon fill="black" stroke="black" points="645.55,-140.99 649.05,-150.99 652.55,-140.99 645.55,-140.99"/>
</g>
<!-- PrivateProfileProfessionalComponent -->
<g id="node3" class="node">
<title>PrivateProfileProfessionalComponent</title>
<polygon fill="#ffffb3" stroke="black" points="494.29,-122 265.71,-122 265.71,-86 494.29,-86 494.29,-122"/>
<text text-anchor="middle" x="380" y="-99.8" font-family="Times,serif" font-size="14.00">PrivateProfileProfessionalComponent</text>
</g>
<!-- PrivateProfileProfessionalComponent&#45;&gt;ProfileModule -->
<g id="edge3" class="edge">
<title>PrivateProfileProfessionalComponent&#45;&gt;ProfileModule</title>
<path fill="none" stroke="black" d="M380,-122.02C380,-139.37 380,-163 380,-163 380,-163 616.29,-163 616.29,-163"/>
<polygon fill="black" stroke="black" points="616.29,-166.5 626.29,-163 616.29,-159.5 616.29,-166.5"/>
</g>
<!-- PublicProfileProfessionalComponent -->
<g id="node4" class="node">
<title>PublicProfileProfessionalComponent</title>
<polygon fill="#ffffb3" stroke="black" points="248.41,-122 23.59,-122 23.59,-86 248.41,-86 248.41,-122"/>
<text text-anchor="middle" x="136" y="-99.8" font-family="Times,serif" font-size="14.00">PublicProfileProfessionalComponent</text>
</g>
<!-- PublicProfileProfessionalComponent&#45;&gt;ProfileModule -->
<g id="edge4" class="edge">
<title>PublicProfileProfessionalComponent&#45;&gt;ProfileModule</title>
<path fill="none" stroke="black" d="M136,-122.28C136,-143.32 136,-175 136,-175 136,-175 616.22,-175 616.22,-175"/>
<polygon fill="black" stroke="black" points="616.22,-178.5 626.22,-175 616.22,-171.5 616.22,-178.5"/>
</g>
<!-- ProfileRoutingModule -->
<g id="node6" class="node">
<title>ProfileRoutingModule</title>
<polygon fill="#8dd3c7" stroke="black" points="1109.27,-122 1106.27,-126 1085.27,-126 1082.27,-122 966.73,-122 966.73,-86 1109.27,-86 1109.27,-122"/>
<text text-anchor="middle" x="1038" y="-99.8" font-family="Times,serif" font-size="14.00">ProfileRoutingModule</text>
</g>
<!-- ProfileRoutingModule&#45;&gt;ProfileModule -->
<g id="edge5" class="edge">
<title>ProfileRoutingModule&#45;&gt;ProfileModule</title>
<path fill="none" stroke="black" d="M1038,-122.28C1038,-143.32 1038,-175 1038,-175 1038,-175 733.96,-175 733.96,-175"/>
<polygon fill="black" stroke="black" points="733.96,-171.5 723.96,-175 733.96,-178.5 733.96,-171.5"/>
</g>
<!-- SharedModule -->
<g id="node7" class="node">
<title>SharedModule</title>
<polygon fill="#8dd3c7" stroke="black" points="948.42,-122 945.42,-126 924.42,-126 921.42,-122 849.58,-122 849.58,-86 948.42,-86 948.42,-122"/>
<text text-anchor="middle" x="899" y="-99.8" font-family="Times,serif" font-size="14.00">SharedModule</text>
</g>
<!-- SharedModule&#45;&gt;ProfileModule -->
<g id="edge6" class="edge">
<title>SharedModule&#45;&gt;ProfileModule</title>
<path fill="none" stroke="black" d="M899,-122.02C899,-139.37 899,-163 899,-163 899,-163 733.88,-163 733.88,-163"/>
<polygon fill="black" stroke="black" points="733.88,-159.5 723.88,-163 733.88,-166.5 733.88,-159.5"/>
</g>
</g>
</svg>
