<?xml version="1.0" encoding="UTF-8" standalone="no"?>
<!DOCTYPE svg PUBLIC "-//W3C//DTD SVG 1.1//EN"
 "http://www.w3.org/Graphics/SVG/1.1/DTD/svg11.dtd">
<!-- Generated by graphviz version 2.47.0 (20210316.0004)
 -->
<!-- Title: dependencies Pages: 1 -->
<svg width="1121pt" height="211pt"
 viewBox="0.00 0.00 1121.00 211.00" xmlns="http://www.w3.org/2000/svg" xmlns:xlink="http://www.w3.org/1999/xlink">
<g id="graph0" class="graph" transform="scale(1 1) rotate(0) translate(4 207)">
<title>dependencies</title>
<polygon fill="white" stroke="transparent" points="-4,4 -4,-207 1117,-207 1117,4 -4,4"/>
<text text-anchor="start" x="535.51" y="-42.4" font-family="Times-12" font-weight="bold" font-size="14.00">Legend</text>
<polygon fill="#ffffb3" stroke="transparent" points="322.5,-10 322.5,-30 342.5,-30 342.5,-10 322.5,-10"/>
<text text-anchor="start" x="346.13" y="-15.4" font-family="Times-12" font-size="14.00"> &#160;Declarations</text>
<polygon fill="#8dd3c7" stroke="transparent" points="435.5,-10 435.5,-30 455.5,-30 455.5,-10 435.5,-10"/>
<text text-anchor="start" x="459.23" y="-15.4" font-family="Times-12" font-size="14.00"> &#160;Module</text>
<polygon fill="#80b1d3" stroke="transparent" points="521.5,-10 521.5,-30 541.5,-30 541.5,-10 521.5,-10"/>
<text text-anchor="start" x="545.28" y="-15.4" font-family="Times-12" font-size="14.00"> &#160;Bootstrap</text>
<polygon fill="#fdb462" stroke="transparent" points="618.5,-10 618.5,-30 638.5,-30 638.5,-10 618.5,-10"/>
<text text-anchor="start" x="642.17" y="-15.4" font-family="Times-12" font-size="14.00"> &#160;Providers</text>
<polygon fill="#fb8072" stroke="transparent" points="714.5,-10 714.5,-30 734.5,-30 734.5,-10 714.5,-10"/>
<text text-anchor="start" x="738.23" y="-15.4" font-family="Times-12" font-size="14.00"> &#160;Exports</text>
<g id="clust1" class="cluster">
<title>cluster_AgendaModule</title>
<polygon fill="none" stroke="black" stroke-dasharray="1,5" points="8,-70 8,-195 1105,-195 1105,-70 8,-70"/>
</g>
<g id="clust2" class="cluster">
<title>cluster_AgendaModule_declarations</title>
<polygon fill="none" stroke="black" points="304,-78 304,-130 1097,-130 1097,-78 304,-78"/>
</g>
<g id="clust7" class="cluster">
<title>cluster_AgendaModule_imports</title>
<polygon fill="none" stroke="black" points="16,-78 16,-130 296,-130 296,-78 16,-78"/>
</g>
<!-- AgendaPacienteComponent -->
<g id="node1" class="node">
<title>AgendaPacienteComponent</title>
<polygon fill="#ffffb3" stroke="black" points="1089.29,-122 916.71,-122 916.71,-86 1089.29,-86 1089.29,-122"/>
<text text-anchor="middle" x="1003" y="-99.8" font-family="Times,serif" font-size="14.00">AgendaPacienteComponent</text>
</g>
<!-- AgendaModule -->
<g id="node5" class="node">
<title>AgendaModule</title>
<polygon fill="#8dd3c7" stroke="black" points="556.59,-187 553.59,-191 532.59,-191 529.59,-187 453.41,-187 453.41,-151 556.59,-151 556.59,-187"/>
<text text-anchor="middle" x="505" y="-164.8" font-family="Times,serif" font-size="14.00">AgendaModule</text>
</g>
<!-- AgendaPacienteComponent&#45;&gt;AgendaModule -->
<g id="edge1" class="edge">
<title>AgendaPacienteComponent&#45;&gt;AgendaModule</title>
<path fill="none" stroke="black" d="M1003,-122.28C1003,-143.32 1003,-175 1003,-175 1003,-175 566.89,-175 566.89,-175"/>
<polygon fill="black" stroke="black" points="566.89,-171.5 556.89,-175 566.89,-178.5 566.89,-171.5"/>
</g>
<!-- AgendaProfissionalComponent -->
<g id="node2" class="node">
<title>AgendaProfissionalComponent</title>
<polygon fill="#ffffb3" stroke="black" points="898.75,-122 707.25,-122 707.25,-86 898.75,-86 898.75,-122"/>
<text text-anchor="middle" x="803" y="-99.8" font-family="Times,serif" font-size="14.00">AgendaProfissionalComponent</text>
</g>
<!-- AgendaProfissionalComponent&#45;&gt;AgendaModule -->
<g id="edge2" class="edge">
<title>AgendaProfissionalComponent&#45;&gt;AgendaModule</title>
<path fill="none" stroke="black" d="M803,-122.02C803,-139.37 803,-163 803,-163 803,-163 566.57,-163 566.57,-163"/>
<polygon fill="black" stroke="black" points="566.57,-159.5 556.57,-163 566.57,-166.5 566.57,-159.5"/>
</g>
<!-- DisponibilidadeComponent -->
<g id="node3" class="node">
<title>DisponibilidadeComponent</title>
<polygon fill="#ffffb3" stroke="black" points="689.27,-122 518.73,-122 518.73,-86 689.27,-86 689.27,-122"/>
<text text-anchor="middle" x="604" y="-99.8" font-family="Times,serif" font-size="14.00">DisponibilidadeComponent</text>
</g>
<!-- DisponibilidadeComponent&#45;&gt;AgendaModule -->
<g id="edge3" class="edge">
<title>DisponibilidadeComponent&#45;&gt;AgendaModule</title>
<path fill="none" stroke="black" d="M537.58,-122.11C537.58,-122.11 537.58,-140.99 537.58,-140.99"/>
<polygon fill="black" stroke="black" points="534.08,-140.99 537.58,-150.99 541.08,-140.99 534.08,-140.99"/>
</g>
<!-- HistoricoConsultasComponent -->
<g id="node4" class="node">
<title>HistoricoConsultasComponent</title>
<polygon fill="#ffffb3" stroke="black" points="500.15,-122 311.85,-122 311.85,-86 500.15,-86 500.15,-122"/>
<text text-anchor="middle" x="406" y="-99.8" font-family="Times,serif" font-size="14.00">HistoricoConsultasComponent</text>
</g>
<!-- HistoricoConsultasComponent&#45;&gt;AgendaModule -->
<g id="edge4" class="edge">
<title>HistoricoConsultasComponent&#45;&gt;AgendaModule</title>
<path fill="none" stroke="black" d="M476.89,-122.11C476.89,-122.11 476.89,-140.99 476.89,-140.99"/>
<polygon fill="black" stroke="black" points="473.39,-140.99 476.89,-150.99 480.39,-140.99 473.39,-140.99"/>
</g>
<!-- AgendaRoutingModule -->
<g id="node6" class="node">
<title>AgendaRoutingModule</title>
<polygon fill="#8dd3c7" stroke="black" points="288.2,-122 285.2,-126 264.2,-126 261.2,-122 139.8,-122 139.8,-86 288.2,-86 288.2,-122"/>
<text text-anchor="middle" x="214" y="-99.8" font-family="Times,serif" font-size="14.00">AgendaRoutingModule</text>
</g>
<!-- AgendaRoutingModule&#45;&gt;AgendaModule -->
<g id="edge5" class="edge">
<title>AgendaRoutingModule&#45;&gt;AgendaModule</title>
<path fill="none" stroke="black" d="M214,-122.02C214,-139.37 214,-163 214,-163 214,-163 443.31,-163 443.31,-163"/>
<polygon fill="black" stroke="black" points="443.31,-166.5 453.31,-163 443.31,-159.5 443.31,-166.5"/>
</g>
<!-- SharedModule -->
<g id="node7" class="node">
<title>SharedModule</title>
<polygon fill="#8dd3c7" stroke="black" points="122.42,-122 119.42,-126 98.42,-126 95.42,-122 23.58,-122 23.58,-86 122.42,-86 122.42,-122"/>
<text text-anchor="middle" x="73" y="-99.8" font-family="Times,serif" font-size="14.00">SharedModule</text>
</g>
<!-- SharedModule&#45;&gt;AgendaModule -->
<g id="edge6" class="edge">
<title>SharedModule&#45;&gt;AgendaModule</title>
<path fill="none" stroke="black" d="M73,-122.28C73,-143.32 73,-175 73,-175 73,-175 443.32,-175 443.32,-175"/>
<polygon fill="black" stroke="black" points="443.32,-178.5 453.32,-175 443.32,-171.5 443.32,-178.5"/>
</g>
</g>
</svg>
