<?xml version="1.0" encoding="UTF-8" standalone="no"?>
<!DOCTYPE svg PUBLIC "-//W3C//DTD SVG 1.1//EN"
 "http://www.w3.org/Graphics/SVG/1.1/DTD/svg11.dtd">
<!-- Generated by graphviz version 2.47.0 (20210316.0004)
 -->
<!-- Title: dependencies Pages: 1 -->
<svg width="1264pt" height="211pt"
 viewBox="0.00 0.00 1264.00 211.00" xmlns="http://www.w3.org/2000/svg" xmlns:xlink="http://www.w3.org/1999/xlink">
<g id="graph0" class="graph" transform="scale(1 1) rotate(0) translate(4 207)">
<title>dependencies</title>
<polygon fill="white" stroke="transparent" points="-4,4 -4,-207 1260,-207 1260,4 -4,4"/>
<text text-anchor="start" x="607.01" y="-42.4" font-family="Times-12" font-weight="bold" font-size="14.00">Legend</text>
<polygon fill="#ffffb3" stroke="transparent" points="394,-10 394,-30 414,-30 414,-10 394,-10"/>
<text text-anchor="start" x="417.63" y="-15.4" font-family="Times-12" font-size="14.00"> &#160;Declarations</text>
<polygon fill="#8dd3c7" stroke="transparent" points="507,-10 507,-30 527,-30 527,-10 507,-10"/>
<text text-anchor="start" x="530.73" y="-15.4" font-family="Times-12" font-size="14.00"> &#160;Module</text>
<polygon fill="#80b1d3" stroke="transparent" points="593,-10 593,-30 613,-30 613,-10 593,-10"/>
<text text-anchor="start" x="616.78" y="-15.4" font-family="Times-12" font-size="14.00"> &#160;Bootstrap</text>
<polygon fill="#fdb462" stroke="transparent" points="690,-10 690,-30 710,-30 710,-10 690,-10"/>
<text text-anchor="start" x="713.67" y="-15.4" font-family="Times-12" font-size="14.00"> &#160;Providers</text>
<polygon fill="#fb8072" stroke="transparent" points="786,-10 786,-30 806,-30 806,-10 786,-10"/>
<text text-anchor="start" x="809.73" y="-15.4" font-family="Times-12" font-size="14.00"> &#160;Exports</text>
<g id="clust1" class="cluster">
<title>cluster_AgendaModule</title>
<polygon fill="none" stroke="black" stroke-dasharray="1,5" points="8,-70 8,-195 1248,-195 1248,-70 8,-70"/>
</g>
<g id="clust8" class="cluster">
<title>cluster_AgendaModule_imports</title>
<polygon fill="none" stroke="black" points="960,-78 960,-130 1240,-130 1240,-78 960,-78"/>
</g>
<g id="clust2" class="cluster">
<title>cluster_AgendaModule_declarations</title>
<polygon fill="none" stroke="black" points="16,-78 16,-130 952,-130 952,-78 16,-78"/>
</g>
<!-- AgendaComponent -->
<g id="node1" class="node">
<title>AgendaComponent</title>
<polygon fill="#ffffb3" stroke="black" points="944.37,-122 819.63,-122 819.63,-86 944.37,-86 944.37,-122"/>
<text text-anchor="middle" x="882" y="-99.8" font-family="Times,serif" font-size="14.00">AgendaComponent</text>
</g>
<!-- AgendaModule -->
<g id="node6" class="node">
<title>AgendaModule</title>
<polygon fill="#8dd3c7" stroke="black" points="766.59,-187 763.59,-191 742.59,-191 739.59,-187 663.41,-187 663.41,-151 766.59,-151 766.59,-187"/>
<text text-anchor="middle" x="715" y="-164.8" font-family="Times,serif" font-size="14.00">AgendaModule</text>
</g>
<!-- AgendaComponent&#45;&gt;AgendaModule -->
<g id="edge1" class="edge">
<title>AgendaComponent&#45;&gt;AgendaModule</title>
<path fill="none" stroke="black" d="M882,-122.03C882,-138.4 882,-160 882,-160 882,-160 776.92,-160 776.92,-160"/>
<polygon fill="black" stroke="black" points="776.92,-156.5 766.92,-160 776.92,-163.5 776.92,-156.5"/>
</g>
<!-- AgendaPacienteComponent -->
<g id="node2" class="node">
<title>AgendaPacienteComponent</title>
<polygon fill="#ffffb3" stroke="black" points="801.29,-122 628.71,-122 628.71,-86 801.29,-86 801.29,-122"/>
<text text-anchor="middle" x="715" y="-99.8" font-family="Times,serif" font-size="14.00">AgendaPacienteComponent</text>
</g>
<!-- AgendaPacienteComponent&#45;&gt;AgendaModule -->
<g id="edge2" class="edge">
<title>AgendaPacienteComponent&#45;&gt;AgendaModule</title>
<path fill="none" stroke="black" d="M715,-122.11C715,-122.11 715,-140.99 715,-140.99"/>
<polygon fill="black" stroke="black" points="711.5,-140.99 715,-150.99 718.5,-140.99 711.5,-140.99"/>
</g>
<!-- AgendaProfissionalComponent -->
<g id="node3" class="node">
<title>AgendaProfissionalComponent</title>
<polygon fill="#ffffb3" stroke="black" points="610.75,-122 419.25,-122 419.25,-86 610.75,-86 610.75,-122"/>
<text text-anchor="middle" x="515" y="-99.8" font-family="Times,serif" font-size="14.00">AgendaProfissionalComponent</text>
</g>
<!-- AgendaProfissionalComponent&#45;&gt;AgendaModule -->
<g id="edge3" class="edge">
<title>AgendaProfissionalComponent&#45;&gt;AgendaModule</title>
<path fill="none" stroke="black" d="M515,-122.03C515,-138.4 515,-160 515,-160 515,-160 653.23,-160 653.23,-160"/>
<polygon fill="black" stroke="black" points="653.23,-163.5 663.23,-160 653.23,-156.5 653.23,-163.5"/>
</g>
<!-- DisponibilidadeComponent -->
<g id="node4" class="node">
<title>DisponibilidadeComponent</title>
<polygon fill="#ffffb3" stroke="black" points="401.27,-122 230.73,-122 230.73,-86 401.27,-86 401.27,-122"/>
<text text-anchor="middle" x="316" y="-99.8" font-family="Times,serif" font-size="14.00">DisponibilidadeComponent</text>
</g>
<!-- DisponibilidadeComponent&#45;&gt;AgendaModule -->
<g id="edge4" class="edge">
<title>DisponibilidadeComponent&#45;&gt;AgendaModule</title>
<path fill="none" stroke="black" d="M316,-122.11C316,-141.34 316,-169 316,-169 316,-169 653.25,-169 653.25,-169"/>
<polygon fill="black" stroke="black" points="653.25,-172.5 663.25,-169 653.25,-165.5 653.25,-172.5"/>
</g>
<!-- HistoricoConsultasComponent -->
<g id="node5" class="node">
<title>HistoricoConsultasComponent</title>
<polygon fill="#ffffb3" stroke="black" points="212.15,-122 23.85,-122 23.85,-86 212.15,-86 212.15,-122"/>
<text text-anchor="middle" x="118" y="-99.8" font-family="Times,serif" font-size="14.00">HistoricoConsultasComponent</text>
</g>
<!-- HistoricoConsultasComponent&#45;&gt;AgendaModule -->
<g id="edge5" class="edge">
<title>HistoricoConsultasComponent&#45;&gt;AgendaModule</title>
<path fill="none" stroke="black" d="M118,-122.29C118,-144.21 118,-178 118,-178 118,-178 653.32,-178 653.32,-178"/>
<polygon fill="black" stroke="black" points="653.32,-181.5 663.32,-178 653.32,-174.5 653.32,-181.5"/>
</g>
<!-- AgendaRoutingModule -->
<g id="node7" class="node">
<title>AgendaRoutingModule</title>
<polygon fill="#8dd3c7" stroke="black" points="1232.2,-122 1229.2,-126 1208.2,-126 1205.2,-122 1083.8,-122 1083.8,-86 1232.2,-86 1232.2,-122"/>
<text text-anchor="middle" x="1158" y="-99.8" font-family="Times,serif" font-size="14.00">AgendaRoutingModule</text>
</g>
<!-- AgendaRoutingModule&#45;&gt;AgendaModule -->
<g id="edge6" class="edge">
<title>AgendaRoutingModule&#45;&gt;AgendaModule</title>
<path fill="none" stroke="black" d="M1158,-122.29C1158,-144.21 1158,-178 1158,-178 1158,-178 776.68,-178 776.68,-178"/>
<polygon fill="black" stroke="black" points="776.68,-174.5 766.68,-178 776.68,-181.5 776.68,-174.5"/>
</g>
<!-- SharedModule -->
<g id="node8" class="node">
<title>SharedModule</title>
<polygon fill="#8dd3c7" stroke="black" points="1066.42,-122 1063.42,-126 1042.42,-126 1039.42,-122 967.58,-122 967.58,-86 1066.42,-86 1066.42,-122"/>
<text text-anchor="middle" x="1017" y="-99.8" font-family="Times,serif" font-size="14.00">SharedModule</text>
</g>
<!-- SharedModule&#45;&gt;AgendaModule -->
<g id="edge7" class="edge">
<title>SharedModule&#45;&gt;AgendaModule</title>
<path fill="none" stroke="black" d="M1017,-122.11C1017,-141.34 1017,-169 1017,-169 1017,-169 776.57,-169 776.57,-169"/>
<polygon fill="black" stroke="black" points="776.57,-165.5 766.57,-169 776.57,-172.5 776.57,-165.5"/>
</g>
</g>
</svg>
