<?xml version="1.0" encoding="UTF-8" standalone="no"?>
<!DOCTYPE svg PUBLIC "-//W3C//DTD SVG 1.1//EN"
 "http://www.w3.org/Graphics/SVG/1.1/DTD/svg11.dtd">
<!-- Generated by graphviz version 2.47.0 (20210316.0004)
 -->
<!-- Title: dependencies Pages: 1 -->
<svg width="1352pt" height="211pt"
 viewBox="0.00 0.00 1352.00 211.00" xmlns="http://www.w3.org/2000/svg" xmlns:xlink="http://www.w3.org/1999/xlink">
<g id="graph0" class="graph" transform="scale(1 1) rotate(0) translate(4 207)">
<title>dependencies</title>
<polygon fill="white" stroke="transparent" points="-4,4 -4,-207 1348,-207 1348,4 -4,4"/>
<text text-anchor="start" x="651.01" y="-42.4" font-family="Times-12" font-weight="bold" font-size="14.00">Legend</text>
<polygon fill="#ffffb3" stroke="transparent" points="438,-10 438,-30 458,-30 458,-10 438,-10"/>
<text text-anchor="start" x="461.63" y="-15.4" font-family="Times-12" font-size="14.00"> &#160;Declarations</text>
<polygon fill="#8dd3c7" stroke="transparent" points="551,-10 551,-30 571,-30 571,-10 551,-10"/>
<text text-anchor="start" x="574.73" y="-15.4" font-family="Times-12" font-size="14.00"> &#160;Module</text>
<polygon fill="#80b1d3" stroke="transparent" points="637,-10 637,-30 657,-30 657,-10 637,-10"/>
<text text-anchor="start" x="660.78" y="-15.4" font-family="Times-12" font-size="14.00"> &#160;Bootstrap</text>
<polygon fill="#fdb462" stroke="transparent" points="734,-10 734,-30 754,-30 754,-10 734,-10"/>
<text text-anchor="start" x="757.67" y="-15.4" font-family="Times-12" font-size="14.00"> &#160;Providers</text>
<polygon fill="#fb8072" stroke="transparent" points="830,-10 830,-30 850,-30 850,-10 830,-10"/>
<text text-anchor="start" x="853.73" y="-15.4" font-family="Times-12" font-size="14.00"> &#160;Exports</text>
<g id="clust1" class="cluster">
<title>cluster_ServicesModule</title>
<polygon fill="none" stroke="black" stroke-dasharray="1,5" points="8,-70 8,-195 1336,-195 1336,-70 8,-70"/>
</g>
<g id="clust2" class="cluster">
<title>cluster_ServicesModule_declarations</title>
<polygon fill="none" stroke="black" points="468,-78 468,-130 1328,-130 1328,-78 468,-78"/>
</g>
<g id="clust8" class="cluster">
<title>cluster_ServicesModule_imports</title>
<polygon fill="none" stroke="black" points="16,-78 16,-130 460,-130 460,-78 16,-78"/>
</g>
<!-- MapaComponent -->
<g id="node1" class="node">
<title>MapaComponent</title>
<polygon fill="#ffffb3" stroke="black" points="1319.71,-122 1206.29,-122 1206.29,-86 1319.71,-86 1319.71,-122"/>
<text text-anchor="middle" x="1263" y="-99.8" font-family="Times,serif" font-size="14.00">MapaComponent</text>
</g>
<!-- ServicesModule -->
<g id="node6" class="node">
<title>ServicesModule</title>
<polygon fill="#8dd3c7" stroke="black" points="711.47,-187 708.47,-191 687.47,-191 684.47,-187 604.53,-187 604.53,-151 711.47,-151 711.47,-187"/>
<text text-anchor="middle" x="658" y="-164.8" font-family="Times,serif" font-size="14.00">ServicesModule</text>
</g>
<!-- MapaComponent&#45;&gt;ServicesModule -->
<g id="edge1" class="edge">
<title>MapaComponent&#45;&gt;ServicesModule</title>
<path fill="none" stroke="black" d="M1263,-122.29C1263,-144.21 1263,-178 1263,-178 1263,-178 721.69,-178 721.69,-178"/>
<polygon fill="black" stroke="black" points="721.69,-174.5 711.69,-178 721.69,-181.5 721.69,-174.5"/>
</g>
<!-- MarcacoesComponent -->
<g id="node2" class="node">
<title>MarcacoesComponent</title>
<polygon fill="#ffffb3" stroke="black" points="1187.96,-122 1046.04,-122 1046.04,-86 1187.96,-86 1187.96,-122"/>
<text text-anchor="middle" x="1117" y="-99.8" font-family="Times,serif" font-size="14.00">MarcacoesComponent</text>
</g>
<!-- MarcacoesComponent&#45;&gt;ServicesModule -->
<g id="edge2" class="edge">
<title>MarcacoesComponent&#45;&gt;ServicesModule</title>
<path fill="none" stroke="black" d="M1117,-122.11C1117,-141.34 1117,-169 1117,-169 1117,-169 721.55,-169 721.55,-169"/>
<polygon fill="black" stroke="black" points="721.55,-165.5 711.55,-169 721.55,-172.5 721.55,-165.5"/>
</g>
<!-- MarcarConsultaComponent -->
<g id="node3" class="node">
<title>MarcarConsultaComponent</title>
<polygon fill="#ffffb3" stroke="black" points="1027.52,-122 856.48,-122 856.48,-86 1027.52,-86 1027.52,-122"/>
<text text-anchor="middle" x="942" y="-99.8" font-family="Times,serif" font-size="14.00">MarcarConsultaComponent</text>
</g>
<!-- MarcarConsultaComponent&#45;&gt;ServicesModule -->
<g id="edge3" class="edge">
<title>MarcarConsultaComponent&#45;&gt;ServicesModule</title>
<path fill="none" stroke="black" d="M942,-122.03C942,-138.4 942,-160 942,-160 942,-160 721.75,-160 721.75,-160"/>
<polygon fill="black" stroke="black" points="721.75,-156.5 711.75,-160 721.75,-163.5 721.75,-156.5"/>
</g>
<!-- PaymentFailureComponent -->
<g id="node4" class="node">
<title>PaymentFailureComponent</title>
<polygon fill="#ffffb3" stroke="black" points="837.98,-122 668.02,-122 668.02,-86 837.98,-86 837.98,-122"/>
<text text-anchor="middle" x="753" y="-99.8" font-family="Times,serif" font-size="14.00">PaymentFailureComponent</text>
</g>
<!-- PaymentFailureComponent&#45;&gt;ServicesModule -->
<g id="edge4" class="edge">
<title>PaymentFailureComponent&#45;&gt;ServicesModule</title>
<path fill="none" stroke="black" d="M689.75,-122.11C689.75,-122.11 689.75,-140.99 689.75,-140.99"/>
<polygon fill="black" stroke="black" points="686.25,-140.99 689.75,-150.99 693.25,-140.99 686.25,-140.99"/>
</g>
<!-- PaymentSuccessComponent -->
<g id="node5" class="node">
<title>PaymentSuccessComponent</title>
<polygon fill="#ffffb3" stroke="black" points="650.14,-122 475.86,-122 475.86,-86 650.14,-86 650.14,-122"/>
<text text-anchor="middle" x="563" y="-99.8" font-family="Times,serif" font-size="14.00">PaymentSuccessComponent</text>
</g>
<!-- PaymentSuccessComponent&#45;&gt;ServicesModule -->
<g id="edge5" class="edge">
<title>PaymentSuccessComponent&#45;&gt;ServicesModule</title>
<path fill="none" stroke="black" d="M627.42,-122.11C627.42,-122.11 627.42,-140.99 627.42,-140.99"/>
<polygon fill="black" stroke="black" points="623.92,-140.99 627.42,-150.99 630.92,-140.99 623.92,-140.99"/>
</g>
<!-- CalendarioComponent -->
<g id="node7" class="node">
<title>CalendarioComponent</title>
<polygon fill="#8dd3c7" stroke="black" points="452.25,-122 449.25,-126 428.25,-126 425.25,-122 309.75,-122 309.75,-86 452.25,-86 452.25,-122"/>
<text text-anchor="middle" x="381" y="-99.8" font-family="Times,serif" font-size="14.00">CalendarioComponent</text>
</g>
<!-- CalendarioComponent&#45;&gt;ServicesModule -->
<g id="edge6" class="edge">
<title>CalendarioComponent&#45;&gt;ServicesModule</title>
<path fill="none" stroke="black" d="M381,-122.03C381,-138.4 381,-160 381,-160 381,-160 594.26,-160 594.26,-160"/>
<polygon fill="black" stroke="black" points="594.26,-163.5 604.26,-160 594.26,-156.5 594.26,-163.5"/>
</g>
<!-- ServicesRoutingModule -->
<g id="node8" class="node">
<title>ServicesRoutingModule</title>
<polygon fill="#8dd3c7" stroke="black" points="292.09,-122 289.09,-126 268.09,-126 265.09,-122 139.91,-122 139.91,-86 292.09,-86 292.09,-122"/>
<text text-anchor="middle" x="216" y="-99.8" font-family="Times,serif" font-size="14.00">ServicesRoutingModule</text>
</g>
<!-- ServicesRoutingModule&#45;&gt;ServicesModule -->
<g id="edge7" class="edge">
<title>ServicesRoutingModule&#45;&gt;ServicesModule</title>
<path fill="none" stroke="black" d="M216,-122.11C216,-141.34 216,-169 216,-169 216,-169 594.24,-169 594.24,-169"/>
<polygon fill="black" stroke="black" points="594.24,-172.5 604.24,-169 594.24,-165.5 594.24,-172.5"/>
</g>
<!-- SharedModule -->
<g id="node9" class="node">
<title>SharedModule</title>
<polygon fill="#8dd3c7" stroke="black" points="122.42,-122 119.42,-126 98.42,-126 95.42,-122 23.58,-122 23.58,-86 122.42,-86 122.42,-122"/>
<text text-anchor="middle" x="73" y="-99.8" font-family="Times,serif" font-size="14.00">SharedModule</text>
</g>
<!-- SharedModule&#45;&gt;ServicesModule -->
<g id="edge8" class="edge">
<title>SharedModule&#45;&gt;ServicesModule</title>
<path fill="none" stroke="black" d="M73,-122.29C73,-144.21 73,-178 73,-178 73,-178 594.27,-178 594.27,-178"/>
<polygon fill="black" stroke="black" points="594.27,-181.5 604.27,-178 594.27,-174.5 594.27,-181.5"/>
</g>
</g>
</svg>
