<?xml version="1.0" encoding="UTF-8" standalone="no"?>
<!DOCTYPE svg PUBLIC "-//W3C//DTD SVG 1.1//EN"
 "http://www.w3.org/Graphics/SVG/1.1/DTD/svg11.dtd">
<!-- Generated by graphviz version 2.47.0 (20210316.0004)
 -->
<!-- Title: dependencies Pages: 1 -->
<svg width="779pt" height="284pt"
 viewBox="0.00 0.00 779.00 284.00" xmlns="http://www.w3.org/2000/svg" xmlns:xlink="http://www.w3.org/1999/xlink">
<g id="graph0" class="graph" transform="scale(1 1) rotate(0) translate(4 280)">
<title>dependencies</title>
<polygon fill="white" stroke="transparent" points="-4,4 -4,-280 775,-280 775,4 -4,4"/>
<text text-anchor="start" x="364.51" y="-42.4" font-family="Times-12" font-weight="bold" font-size="14.00">Legend</text>
<polygon fill="#ffffb3" stroke="transparent" points="151.5,-10 151.5,-30 171.5,-30 171.5,-10 151.5,-10"/>
<text text-anchor="start" x="175.13" y="-15.4" font-family="Times-12" font-size="14.00"> &#160;Declarations</text>
<polygon fill="#8dd3c7" stroke="transparent" points="264.5,-10 264.5,-30 284.5,-30 284.5,-10 264.5,-10"/>
<text text-anchor="start" x="288.23" y="-15.4" font-family="Times-12" font-size="14.00"> &#160;Module</text>
<polygon fill="#80b1d3" stroke="transparent" points="350.5,-10 350.5,-30 370.5,-30 370.5,-10 350.5,-10"/>
<text text-anchor="start" x="374.28" y="-15.4" font-family="Times-12" font-size="14.00"> &#160;Bootstrap</text>
<polygon fill="#fdb462" stroke="transparent" points="447.5,-10 447.5,-30 467.5,-30 467.5,-10 447.5,-10"/>
<text text-anchor="start" x="471.17" y="-15.4" font-family="Times-12" font-size="14.00"> &#160;Providers</text>
<polygon fill="#fb8072" stroke="transparent" points="543.5,-10 543.5,-30 563.5,-30 563.5,-10 543.5,-10"/>
<text text-anchor="start" x="567.23" y="-15.4" font-family="Times-12" font-size="14.00"> &#160;Exports</text>
<g id="clust1" class="cluster">
<title>cluster_SharedModule</title>
<polygon fill="none" stroke="black" stroke-dasharray="1,5" points="8,-70 8,-268 763,-268 763,-70 8,-70"/>
</g>
<g id="clust2" class="cluster">
<title>cluster_SharedModule_declarations</title>
<polygon fill="none" stroke="black" points="16,-78 16,-130 755,-130 755,-78 16,-78"/>
</g>
<g id="clust8" class="cluster">
<title>cluster_SharedModule_exports</title>
<polygon fill="none" stroke="black" points="88,-208 88,-260 682,-260 682,-208 88,-208"/>
</g>
<!-- LoadingSpinnerComponent -->
<g id="node1" class="node">
<title>LoadingSpinnerComponent</title>
<polygon fill="#ffffb3" stroke="black" points="746.54,-122 575.46,-122 575.46,-86 746.54,-86 746.54,-122"/>
<text text-anchor="middle" x="661" y="-99.8" font-family="Times,serif" font-size="14.00">LoadingSpinnerComponent</text>
</g>
<!-- SharedModule -->
<g id="node5" class="node">
<title>SharedModule</title>
<polygon fill="#8dd3c7" stroke="black" points="445.42,-187 442.42,-191 421.42,-191 418.42,-187 346.58,-187 346.58,-151 445.42,-151 445.42,-187"/>
<text text-anchor="middle" x="396" y="-164.8" font-family="Times,serif" font-size="14.00">SharedModule</text>
</g>
<!-- LoadingSpinnerComponent&#45;&gt;SharedModule -->
<g id="edge1" class="edge">
<title>LoadingSpinnerComponent&#45;&gt;SharedModule</title>
<path fill="none" stroke="black" d="M624.38,-122.02C624.38,-139.37 624.38,-163 624.38,-163 624.38,-163 455.27,-163 455.27,-163"/>
<polygon fill="black" stroke="black" points="455.27,-159.5 445.27,-163 455.27,-166.5 455.27,-159.5"/>
</g>
<!-- NotFoundComponent -->
<g id="node2" class="node">
<title>NotFoundComponent</title>
<polygon fill="#ffffb3" stroke="black" points="557.11,-122 418.89,-122 418.89,-86 557.11,-86 557.11,-122"/>
<text text-anchor="middle" x="488" y="-99.8" font-family="Times,serif" font-size="14.00">NotFoundComponent</text>
</g>
<!-- NotFoundComponent&#45;&gt;SharedModule -->
<g id="edge2" class="edge">
<title>NotFoundComponent&#45;&gt;SharedModule</title>
<path fill="none" stroke="black" d="M432.08,-122.11C432.08,-122.11 432.08,-140.99 432.08,-140.99"/>
<polygon fill="black" stroke="black" points="428.58,-140.99 432.08,-150.99 435.58,-140.99 428.58,-140.99"/>
</g>
<!-- PopUpSuccessComponent -->
<g id="node3" class="node">
<title>PopUpSuccessComponent</title>
<polygon fill="#ffffb3" stroke="black" points="401.04,-122 236.96,-122 236.96,-86 401.04,-86 401.04,-122"/>
<text text-anchor="middle" x="319" y="-99.8" font-family="Times,serif" font-size="14.00">PopUpSuccessComponent</text>
</g>
<!-- PopUpSuccessComponent&#45;&gt;SharedModule -->
<g id="edge3" class="edge">
<title>PopUpSuccessComponent&#45;&gt;SharedModule</title>
<path fill="none" stroke="black" d="M374.03,-122.11C374.03,-122.11 374.03,-140.99 374.03,-140.99"/>
<polygon fill="black" stroke="black" points="370.53,-140.99 374.03,-150.99 377.53,-140.99 370.53,-140.99"/>
</g>
<!-- ValidationMessagesComponent -->
<g id="node4" class="node">
<title>ValidationMessagesComponent</title>
<polygon fill="#ffffb3" stroke="black" points="218.35,-122 23.65,-122 23.65,-86 218.35,-86 218.35,-122"/>
<text text-anchor="middle" x="121" y="-99.8" font-family="Times,serif" font-size="14.00">ValidationMessagesComponent</text>
</g>
<!-- ValidationMessagesComponent&#45;&gt;SharedModule -->
<g id="edge4" class="edge">
<title>ValidationMessagesComponent&#45;&gt;SharedModule</title>
<path fill="none" stroke="black" d="M157.12,-122.02C157.12,-139.37 157.12,-163 157.12,-163 157.12,-163 336.5,-163 336.5,-163"/>
<polygon fill="black" stroke="black" points="336.5,-166.5 346.5,-163 336.5,-159.5 336.5,-166.5"/>
</g>
<!-- LoadingSpinnerComponent  -->
<g id="node6" class="node">
<title>LoadingSpinnerComponent </title>
<polygon fill="#fb8072" stroke="black" points="673.54,-252 498.46,-252 498.46,-216 673.54,-216 673.54,-252"/>
<text text-anchor="middle" x="586" y="-229.8" font-family="Times,serif" font-size="14.00">LoadingSpinnerComponent </text>
</g>
<!-- SharedModule&#45;&gt;LoadingSpinnerComponent  -->
<g id="edge5" class="edge">
<title>SharedModule&#45;&gt;LoadingSpinnerComponent </title>
<path fill="none" stroke="black" stroke-dasharray="5,2" d="M445.44,-175C482.83,-175 527.77,-175 527.77,-175 527.77,-175 527.77,-205.98 527.77,-205.98"/>
<polygon fill="black" stroke="black" points="524.27,-205.98 527.77,-215.98 531.27,-205.98 524.27,-205.98"/>
</g>
<!-- PopUpSuccessComponent  -->
<g id="node7" class="node">
<title>PopUpSuccessComponent </title>
<polygon fill="#fb8072" stroke="black" points="480.04,-252 311.96,-252 311.96,-216 480.04,-216 480.04,-252"/>
<text text-anchor="middle" x="396" y="-229.8" font-family="Times,serif" font-size="14.00">PopUpSuccessComponent </text>
</g>
<!-- SharedModule&#45;&gt;PopUpSuccessComponent  -->
<g id="edge6" class="edge">
<title>SharedModule&#45;&gt;PopUpSuccessComponent </title>
<path fill="none" stroke="black" stroke-dasharray="5,2" d="M396,-187.11C396,-187.11 396,-205.99 396,-205.99"/>
<polygon fill="black" stroke="black" points="392.5,-205.99 396,-215.99 399.5,-205.99 392.5,-205.99"/>
</g>
<!-- ValidationMessagesComponent  -->
<g id="node8" class="node">
<title>ValidationMessagesComponent </title>
<polygon fill="#fb8072" stroke="black" points="294.35,-252 95.65,-252 95.65,-216 294.35,-216 294.35,-252"/>
<text text-anchor="middle" x="195" y="-229.8" font-family="Times,serif" font-size="14.00">ValidationMessagesComponent </text>
</g>
<!-- SharedModule&#45;&gt;ValidationMessagesComponent  -->
<g id="edge7" class="edge">
<title>SharedModule&#45;&gt;ValidationMessagesComponent </title>
<path fill="none" stroke="black" stroke-dasharray="5,2" d="M346.65,-175C309.68,-175 265.45,-175 265.45,-175 265.45,-175 265.45,-205.98 265.45,-205.98"/>
<polygon fill="black" stroke="black" points="261.95,-205.98 265.45,-215.98 268.95,-205.98 261.95,-205.98"/>
</g>
</g>
</svg>
